<?xml version="1.0" encoding="UTF-8"?>
<svg width="100px" height="100px" viewBox="0 0 100 100" version="1.1" xmlns="http://www.w3.org/2000/svg" xmlns:xlink="http://www.w3.org/1999/xlink">
    <!-- Generator: Sketch 52.2 (67145) - http://www.bohemiancoding.com/sketch -->
    <title>Icons/100_tv</title>
    <desc>Created with Sketch.</desc>
    <g id="Icons/100_tv" stroke="none" stroke-width="1" fill="none" fill-rule="evenodd">
        <g id="Group-11" transform="translate(14.000000, 18.000000)" fill="#4A4A4A">
            <path d="M24.9947156,0.409460262 C24.7331531,0.149547598 24.3703406,2.79475982e-05 24.0004969,2.79475982e-05 C23.6292469,2.79475982e-05 23.2678406,0.149547598 23.0062781,0.409460262 C22.7447156,0.669372926 22.5942469,1.02989694 22.5942469,1.39740786 C22.5942469,1.76491878 22.7447156,2.12544279 23.0062781,2.38535546 C23.2678406,2.64526812 23.6292469,2.79478777 24.0004969,2.79478777 C24.3703406,2.79478777 24.7331531,2.64526812 24.9947156,2.38535546 C25.2562781,2.12544279 25.4067469,1.76491878 25.4067469,1.39740786 C25.4067469,1.02989694 25.2562781,0.669372926 24.9947156,0.409460262" id="Fill-1"></path>
            <path d="M53.15625,58.4104803 L53.15625,61.2052402 L18.84375,61.2052402 L18.84375,58.4104803 L27,58.4104803 L45,58.4104803 L53.15625,58.4104803 Z M28.40625,55.6157205 L43.59375,55.6157205 L43.59375,50.8646288 L28.40625,50.8646288 L28.40625,55.6157205 Z M70.59375,0 L29.9999531,0 C29.2232812,0 28.5937031,0.625606987 28.5937031,1.39737991 C28.5937031,2.16915284 29.2232812,2.79475983 29.9999531,2.79475983 L69.1875,2.79475983 L69.1875,14.2324541 L64.2549375,19.1336245 C63.7057969,19.6793013 63.7057969,20.5641223 64.2549375,21.1099389 C64.5295781,21.3827074 64.8894375,21.5192314 65.2492969,21.5192314 C65.6091562,21.5192314 65.9691562,21.3827074 66.2435156,21.1099389 L69.1875,18.1848035 L69.1875,48.069869 L2.8125,48.069869 L2.8125,2.79475983 L17.859375,2.79475983 C18.6360469,2.79475983 19.265625,2.16915284 19.265625,1.39737991 C19.265625,0.625606987 18.6360469,0 17.859375,0 L1.40625,0 C0.629578125,0 0,0.625606987 0,1.39737991 L0,49.4672489 C0,50.2390218 0.629578125,50.8646288 1.40625,50.8646288 L25.59375,50.8646288 L25.59375,55.6157205 L17.4375,55.6157205 C16.6608281,55.6157205 16.03125,56.2413275 16.03125,57.0131004 L16.03125,61.2052402 L8.03728125,61.2052402 C7.26060937,61.2052402 6.63103125,61.8308472 6.63103125,62.6026201 C6.63103125,63.374393 7.26060937,64 8.03728125,64 L58.9279219,64 C59.7045938,64 60.3341719,63.374393 60.3341719,62.6026201 C60.3341719,61.8308472 59.7045938,61.2052402 58.9279219,61.2052402 L55.96875,61.2052402 L55.96875,57.0131004 C55.96875,56.2413275 55.3391719,55.6157205 54.5625,55.6157205 L46.40625,55.6157205 L46.40625,50.8646288 L70.59375,50.8646288 C71.3704219,50.8646288 72,50.2390218 72,49.4672489 L72,1.39737991 C72,0.625606987 71.3704219,0 70.59375,0 Z" id="Fill-3"></path>
            <path d="M17.3117109,19.8670114 C16.7625703,19.3211948 15.8722734,19.3214742 15.3228516,19.8670114 L10.5060234,24.653317 C9.95702344,25.1991336 9.95702344,26.0839546 10.5060234,26.6297712 C10.7808047,26.9026795 11.1406641,27.0390638 11.5003828,27.0390638 C11.8602422,27.0390638 12.2202422,26.9025397 12.4948828,26.6297712 L17.3117109,21.8433258 C17.8608516,21.2975092 17.8609922,20.4126882 17.3117109,19.8670114" id="Fill-5"></path>
            <path d="M8.52326719,28.6001607 C8.26170469,28.340248 7.89889219,28.1907284 7.52904844,28.1907284 C7.15920469,28.1907284 6.79639219,28.340248 6.53482969,28.6001607 C6.27326719,28.8600734 6.12279844,29.2192 6.12279844,29.5881083 C6.12279844,29.9556192 6.27326719,30.3161432 6.53482969,30.5760559 C6.79639219,30.8359686 7.15920469,30.9854882 7.52904844,30.9854882 C7.89889219,30.9854882 8.26170469,30.8359686 8.52326719,30.5760559 C8.78482969,30.3161432 8.93529844,29.9556192 8.93529844,29.5881083 C8.93529844,29.2205974 8.78482969,28.8600734 8.52326719,28.6001607" id="Fill-7"></path>
            <path d="M64.9574859,61.6146306 C64.6959234,61.3548576 64.3332516,61.2051983 63.9632672,61.2051983 C63.5920172,61.2051983 63.2306109,61.3548576 62.9690484,61.6146306 C62.7060797,61.8745432 62.5570172,62.2350672 62.5570172,62.6025782 C62.5570172,62.9700891 62.7060797,63.3306131 62.9690484,63.5906655 C63.2292047,63.8504384 63.5920172,63.9999581 63.9632672,63.9999581 C64.3332516,63.9999581 64.6959234,63.8504384 64.9574859,63.5906655 C65.2190484,63.3306131 65.3695172,62.9700891 65.3695172,62.6025782 C65.3695172,62.2350672 65.2190484,61.8745432 64.9574859,61.6146306" id="Fill-9"></path>
        </g>
    </g>
</svg>