<?xml version="1.0" encoding="UTF-8"?>
<svg width="100px" height="100px" viewBox="0 0 100 100" version="1.1" xmlns="http://www.w3.org/2000/svg" xmlns:xlink="http://www.w3.org/1999/xlink">
    <!-- Generator: Sketch 52.2 (67145) - http://www.bohemiancoding.com/sketch -->
    <title>Icons/100_pillow</title>
    <desc>Created with Sketch.</desc>
    <g id="Icons/100_pillow" stroke="none" stroke-width="1" fill="none" fill-rule="evenodd">
        <g id="Group-14" transform="translate(12.000000, 12.000000)" fill="#4A4A4A">
            <path d="M25.9259301,59.1634313 C25.9250277,59.1623785 25.9193129,59.1566637 25.9184105,59.1556109 C25.3315863,58.5692379 24.3829223,58.571193 23.7954965,59.1571148 C23.2079203,59.7430367 23.2086723,60.6965133 23.7939926,61.284691 C23.7974516,61.2884508 23.8108363,61.3016852 23.8144457,61.3051441 C24.107557,61.5937438 24.4889477,61.737818 24.8703383,61.737818 C25.2589477,61.737818 25.6474066,61.5883297 25.9414203,61.2896539 C26.524184,60.6978668 26.5174164,59.7463453 25.9259301,59.1634313" id="Fill-1"></path>
            <path d="M58.1779666,50.4667625 C57.800035,50.0888309 57.2502068,49.9399441 56.7334646,50.0752957 C55.2671561,50.4598445 53.7489627,50.6547508 52.2217459,50.6547508 C42.4373318,50.6547508 34.4768553,42.6942742 34.4768553,32.9098602 C34.4768553,31.382493 34.6717615,29.86445 35.05616,28.3981414 C35.1916619,27.8812488 35.0426248,27.3312703 34.6648436,26.9536395 C34.2870623,26.5757078 33.7370838,26.4269715 33.2203416,26.5621727 C24.1068201,28.9502254 17.7419881,37.2053172 17.7419881,46.6369148 C17.7419881,50.0799578 18.6029744,53.4906668 20.2318553,56.5005848 C20.6270818,57.2311824 21.5396521,57.5023367 22.2700994,57.1075613 C23.0005467,56.712034 23.2723025,55.7997645 22.877076,55.0693172 C21.4853611,52.4974871 20.7498006,49.5818641 20.7498006,46.6370652 C20.7498006,39.4088406 25.1212049,32.9888152 31.6373299,30.2644891 C31.52574,31.1399129 31.4694939,32.0236082 31.4694939,32.9098602 C31.4694939,44.352782 40.7791248,53.6622625 52.2218963,53.6622625 C53.1082986,53.6622625 53.9919939,53.6060164 54.867117,53.4944266 C52.1427908,60.0105516 45.722615,64.3818055 38.4946912,64.3818055 C35.547035,64.3818055 32.6288553,63.6450418 30.0552205,62.2506199 C29.325074,61.8549422 28.4123533,62.1260965 28.0166756,62.8566941 C27.6209979,63.586991 27.8923025,64.4995613 28.6225994,64.8950887 C31.6347732,66.5269773 35.0483396,67.3894676 38.4945408,67.3894676 C47.9261385,67.3894676 56.1812303,61.0247859 58.5695838,51.9112645 C58.704785,51.3945223 58.5557479,50.8445438 58.1779666,50.4667625" id="Fill-3"></path>
            <path d="M38.5570582,16.2409994 L38.4943453,16.2409994 C37.6637379,16.2409994 36.9905895,16.9142982 36.9905895,17.7447553 C36.9905895,18.5753627 37.6638883,19.2485111 38.4943453,19.2485111 L38.5570582,19.2485111 C39.3876656,19.2485111 40.0609645,18.5752123 40.0609645,17.7447553 C40.0609645,16.9142982 39.3875152,16.2409994 38.5570582,16.2409994" id="Fill-5"></path>
            <path d="M72.1214033,56.4367139 C72.55904,53.2018115 72.7808662,49.8981807 72.7808662,46.6178604 C72.7808662,43.3373896 72.5588896,40.0339092 72.1214033,36.7990068 C71.7188076,33.8220244 72.7449229,30.7785693 74.8660322,28.65746 C77.7033018,25.8201904 77.7031514,21.2041006 74.8660322,18.3666807 C72.0289131,15.5297119 67.4126729,15.5295615 64.573749,18.368335 C63.1856436,19.7568916 61.1701084,20.2339307 59.3136865,19.6134189 C54.8052764,18.1066553 50.1147432,17.0919697 45.3723252,16.5976357 C44.5457783,16.5122139 43.8069092,17.1116709 43.7207354,17.9374658 C43.6347119,18.7637119 44.2346201,19.5030322 45.0605654,19.5890557 C49.584917,20.0608311 54.05979,21.0285947 58.3603604,22.4658779 C61.3053096,23.4501846 64.5008096,22.6946221 66.7019268,20.4933545 C68.3666006,18.8291318 71.074835,18.8291318 72.739208,20.4933545 C74.4035811,22.1577275 74.4035811,24.8662627 72.739208,26.5306357 C69.958335,29.3113584 68.6130908,33.3009209 69.1408115,37.2022041 C69.5604014,40.3040107 69.7732041,43.4718389 69.7732041,46.6181611 C69.7732041,49.7641826 69.5604014,52.9320107 69.1408115,56.0339678 C68.6130908,59.9355518 69.9584854,63.9246631 72.739208,66.7053857 C74.4035811,68.3700596 74.4035811,71.0782939 72.739208,72.742667 C71.0749854,74.4068896 68.3664502,74.40704 66.7004229,72.7410127 C64.5027646,70.5435049 61.3105732,69.7888447 58.369083,70.7723994 C51.9792861,72.908999 45.2923174,73.9924131 38.4939092,73.9924131 C31.6968545,73.9924131 25.0112393,72.9092998 18.6226455,70.7736025 C15.6813057,69.7903486 12.489415,70.5450088 10.2917568,72.742667 C9.4853623,73.5489111 8.41337793,73.9927139 7.27296582,73.9927139 C6.13255371,73.9927139 5.06071973,73.5486104 4.2543252,72.7425166 C3.44793066,71.9362725 3.00412793,70.8642881 3.00412793,69.723876 C3.00412793,68.5834639 3.44823145,67.5116299 4.25447559,66.705085 C7.03279199,63.9269189 8.37623145,59.9418682 7.84851074,56.0450967 C7.42786816,52.9390791 7.21461426,49.7671904 7.21461426,46.6175596 C7.21461426,43.4680791 7.42786816,40.2961904 7.84851074,37.1901729 C8.37623145,33.2934014 7.03249121,29.3083506 4.25447559,26.530335 C2.59010254,24.8656611 2.59010254,22.1572764 4.25447559,20.4930537 C5.91884863,18.8286807 8.62738379,18.8286807 10.2916064,20.4930537 C12.4915205,22.6928174 15.6871709,23.4482295 18.6313682,22.4640732 C22.8379443,21.0585225 27.2135596,20.1015869 31.6365479,19.6194346 C32.4621924,19.529501 33.0584912,18.7871729 32.9685576,17.9618291 C32.8784736,17.1358838 32.1361455,16.5389834 31.3108018,16.6298193 C26.67471,17.1346807 22.0879463,18.1379365 17.678042,19.6117646 C15.8223721,20.2318252 13.8066865,19.7547861 12.4181299,18.3662295 C9.58101074,15.52896 4.96462012,15.5294111 2.12750098,18.3662295 C-0.709317383,21.2036494 -0.709166992,25.8198896 2.12795215,28.6570088 C4.24635449,30.7755615 5.27081543,33.8146553 4.86837012,36.7866748 C4.42968066,40.0260889 4.20725293,43.3336299 4.20725293,46.6178604 C4.20725293,49.9019404 4.42968066,53.2094814 4.86837012,56.4487451 C5.27096582,59.4210654 4.24635449,62.4601592 2.12795215,64.5785615 C-0.709317383,67.4158311 -0.709317383,72.0320713 2.12795215,74.86904 C4.96507129,77.70646 9.58146191,77.7063096 12.4184307,74.86904 C13.8045811,73.4831904 15.8166572,73.0070537 17.6691689,73.6260615 C24.3657627,75.8649268 31.3723115,76.9999248 38.4939092,76.9999248 C45.6171611,76.9999248 52.6249131,75.8644756 59.32271,73.624708 C61.1753721,73.0053994 63.1872979,73.4815361 64.5751025,74.8691904 C67.4123721,77.70646 72.0287627,77.70646 74.8657314,74.8691904 C77.703001,72.0319209 77.7028506,67.4159814 74.8657314,64.5787119 C72.7449229,62.4573018 71.7188076,59.4136963 72.1214033,56.4367139" id="Fill-7"></path>
            <path d="M64.5980672,10.8774682 L57.3510438,10.8774682 L65.6614793,2.56718301 C66.0917469,2.13706582 66.2201805,1.49023574 65.9873758,0.928376367 C65.7547215,0.366366602 65.2062469,1.50390625e-05 64.5980672,1.50390625e-05 L53.7206141,1.50390625e-05 C52.8900066,1.50390625e-05 52.2168582,0.673313867 52.2168582,1.5037709 C52.2168582,2.33437832 52.890157,3.00752676 53.7204637,3.00752676 L60.9674871,3.00752676 L52.6573523,11.3178119 C52.2270848,11.7479291 52.0986512,12.3947592 52.3314559,12.9566186 C52.5641102,13.5186283 53.1124344,13.8849799 53.7206141,13.8849799 L64.5980672,13.8849799 C65.4286746,13.8849799 66.101823,13.2116811 66.101823,12.381224 C66.101823,11.550767 65.4286746,10.8774682 64.5980672,10.8774682" id="Fill-10"></path>
            <path d="M51.6101223,31.7035469 L47.4148254,31.7035469 L52.673384,26.4449883 C53.1036516,26.0148711 53.2322355,25.368041 52.9992805,24.8061816 C52.7664758,24.2441719 52.218302,23.8778203 51.6101223,23.8778203 L43.7845461,23.8778203 C42.9537883,23.8778203 42.2807902,24.5511191 42.2807902,25.3815762 C42.2807902,26.2121836 42.9539387,26.885332 43.7845461,26.885332 L47.9795422,26.885332 L42.721134,32.1438906 C42.2908664,32.5740078 42.1624328,33.2208379 42.3952375,33.7826973 C42.6278918,34.344707 43.1763664,34.7110586 43.7845461,34.7110586 L51.6101223,34.7110586 C52.4405793,34.7110586 53.1138781,34.0377598 53.1138781,33.2073027 C53.1138781,32.3768457 52.4404289,31.7035469 51.6101223,31.7035469" id="Fill-12"></path>
        </g>
    </g>
</svg>