<?xml version="1.0" encoding="UTF-8"?>
<svg width="100px" height="100px" viewBox="0 0 100 100" version="1.1" xmlns="http://www.w3.org/2000/svg" xmlns:xlink="http://www.w3.org/1999/xlink">
    <!-- Generator: Sketch 52.2 (67145) - http://www.bohemiancoding.com/sketch -->
    <title>Icons/100_air-conditioner</title>
    <desc>Created with Sketch.</desc>
    <g id="Icons/100_air-conditioner" stroke="none" stroke-width="1" fill="none" fill-rule="evenodd">
        <g id="air-conditioner" transform="translate(12.000000, 22.000000)" fill="#4A4A4A">
            <path d="M70.2062539,0.09915 L6.79374609,0.09915 C3.04781641,0.09915 0,3.1389 0,6.87525 L0,22.40565 C0,26.142 3.04781641,29.18175 6.79374609,29.18175 L70.2061035,29.18175 C73.9521836,29.18175 76.9998496,26.142 76.9998496,22.40565 L76.9998496,6.87525 C77,3.1389 73.9521836,0.09915 70.2062539,0.09915 Z M74.6982715,22.9695 L29.9314941,22.9695 C29.3058691,22.9695 28.7989023,23.4753 28.7989023,24.09915 C28.7989023,24.723 29.3058691,25.2288 29.9314941,25.2288 L73.7374258,25.2288 C72.9068184,26.2602 71.6328594,26.92245 70.2062539,26.92245 L6.79374609,26.92245 C5.36714062,26.92245 4.09333203,26.2605 3.26257422,25.2288 L25.4009766,25.2288 C26.0266016,25.2288 26.5335684,24.723 26.5335684,24.09915 C26.5335684,23.4753 26.0266016,22.9695 25.4009766,22.9695 L2.30172852,22.9695 C2.2442793,22.5114 2.2731543,22.2951 2.26518359,21.5583 L46.8466797,21.5583 C47.4723047,21.5583 47.9792715,21.0525 47.9792715,20.42865 C47.9792715,19.8048 47.4723047,19.299 46.8466797,19.299 L2.26518359,19.299 L2.26518359,6.87525 C2.26518359,4.38465 4.29666016,2.35845 6.79374609,2.35845 L70.2061035,2.35845 C72.7031895,2.35845 74.734666,4.38465 74.734666,6.87525 L74.734666,19.299 L51.3770469,19.299 C50.7514219,19.299 50.2444551,19.8048 50.2444551,20.42865 C50.2444551,21.0525 50.7514219,21.5583 51.3770469,21.5583 L74.734666,21.5583 C74.7268457,22.2825 74.7560215,22.50855 74.6982715,22.9695 Z" id="Shape" fill-rule="nonzero"></path>
            <ellipse id="Oval" cx="65.4093945" cy="15.48735" rx="1.55699414" ry="1.55295"></ellipse>
            <ellipse id="Oval" cx="71.4092285" cy="15.48735" rx="1.55699414" ry="1.55295"></ellipse>
            <path d="M71.5702969,45.9744 L67.6020898,43.51485 L71.5702969,41.0553 C72.1017773,40.72605 72.2648008,40.02945 71.934543,39.4995 C71.6044355,38.9694 70.9057207,38.80695 70.3748418,39.1362 L66.5889082,41.48265 L66.5889082,37.0368 C66.5889082,36.41295 66.0819414,35.90715 65.4563164,35.90715 C64.8306914,35.90715 64.3237246,36.41295 64.3237246,37.0368 L64.3237246,41.4828 L60.5376406,39.1362 C60.0066113,38.80665 59.3078965,38.9694 58.9779395,39.4995 C58.6476816,40.02945 58.8108555,40.72605 59.3421855,41.0553 L63.3103926,43.51485 L59.3421855,45.9744 C58.8107051,46.30365 58.6476816,47.00025 58.9779395,47.5302 C59.1923965,47.8746 59.5623574,48.06375 59.941041,48.06375 C60.5075625,48.06375 60.4662051,47.8704 64.323875,45.5469 L64.323875,49.9929 C64.323875,50.61675 64.8308418,51.12255 65.4564668,51.12255 C66.0820918,51.12255 66.5890586,50.61675 66.5890586,49.9929 L66.5890586,45.54705 C70.4506387,47.87295 70.4043184,48.06375 70.9717422,48.06375 C72.1067402,48.06375 72.5364062,46.5732 71.5702969,45.9744 Z" id="Path"></path>
            <path d="M29.1402891,42.59805 L25.172082,40.1385 L29.1402891,37.67895 C29.6717695,37.3497 29.834793,36.6531 29.5045352,36.12315 C29.1744277,35.59305 28.4757129,35.43075 27.944834,35.75985 L24.15875,38.10645 L24.15875,33.66045 C24.15875,33.0366 23.6517832,32.5308 23.0261582,32.5308 C22.4005332,32.5308 21.8935664,33.0366 21.8935664,33.66045 L21.8935664,38.1063 L18.1076328,35.75985 C17.5766035,35.43045 16.8778887,35.5932 16.5479316,36.12315 C16.2176738,36.6531 16.3808477,37.3497 16.9121777,37.67895 L20.8803848,40.1385 L16.9121777,42.59805 C16.3806973,42.9273 16.2176738,43.6239 16.5479316,44.15385 C16.8762344,44.6811 17.5738965,44.84805 18.1076328,44.51715 L21.8935664,42.1707 L21.8935664,46.61655 C21.8935664,47.2404 22.4005332,47.7462 23.0261582,47.7462 C23.6517832,47.7462 24.15875,47.2404 24.15875,46.61655 L24.15875,42.17055 C28.0212324,44.4969 27.9741602,44.6874 28.541584,44.6874 C29.6768828,44.6874 30.1065488,43.19655 29.1402891,42.59805 Z" id="Path"></path>
            <path d="M42.9920176,52.9572 L41.1963535,51.8442 L42.9920176,50.7312 C43.5231973,50.4018 43.6862207,49.7052 43.3561133,49.17525 C43.0258555,48.6453 42.3275918,48.4827 41.7962617,48.81195 L40.1828711,49.812 L40.1828711,47.9175 C40.1828711,47.29365 39.6759043,46.78785 39.0502793,46.78785 C38.4246543,46.78785 37.9176875,47.29365 37.9176875,47.9175 L37.9176875,49.812 L36.3044473,48.8121 C35.7729668,48.48255 35.0745527,48.64545 34.7445957,49.1754 C34.4143379,49.70535 34.5775117,50.40195 35.1086914,50.7312 L36.9043555,51.8442 L35.1086914,52.9572 C34.5773613,53.28645 34.4143379,53.98305 34.7445957,54.513 C35.0765078,55.04565 35.7755234,55.2039 36.3044473,54.8763 L37.9176875,53.8764 L37.9176875,55.7709 C37.9176875,56.39475 38.4246543,56.90055 39.0502793,56.90055 C39.6759043,56.90055 40.1828711,56.39475 40.1828711,55.7709 L40.1828711,53.87625 L41.7962617,54.8763 C42.3241328,55.2036 43.0239004,55.0464 43.3561133,54.513 C43.6863711,53.98305 43.5231973,53.28645 42.9920176,52.9572 Z" id="Path"></path>
            <path d="M7.53968359,37.9851 C5.61724023,37.9851 4.05302734,39.5451 4.05302734,41.4627 C4.05302734,43.3803 5.61708984,44.9403 7.53968359,44.9403 C9.46227734,44.9403 11.0263398,43.3803 11.0263398,41.4627 C11.0263398,39.5451 9.46212695,37.9851 7.53968359,37.9851 Z M7.53968359,42.68085 C6.86608398,42.68085 6.31821094,42.1344 6.31821094,41.46255 C6.31821094,40.79085 6.86608398,40.24425 7.53968359,40.24425 C8.2132832,40.24425 8.76115625,40.7907 8.76115625,41.46255 C8.76115625,42.13425 8.2132832,42.68085 7.53968359,42.68085 Z" id="Shape" fill-rule="nonzero"></path>
            <path d="M48.281707,32.82405 C46.3592637,32.82405 44.7950508,34.38405 44.7950508,36.30165 C44.7950508,38.21925 46.3591133,39.77925 48.281707,39.77925 C50.2043008,39.77925 51.7683633,38.21925 51.7683633,36.30165 C51.7683633,34.3842 50.2041504,32.82405 48.281707,32.82405 Z M48.281707,37.5201 C47.6081074,37.5201 47.0602344,36.97365 47.0602344,36.3018 C47.0602344,35.6301 47.6081074,35.0835 48.281707,35.0835 C48.9553066,35.0835 49.5031797,35.62995 49.5031797,36.3018 C49.5030293,36.9735 48.9551562,37.5201 48.281707,37.5201 Z" id="Shape" fill-rule="nonzero"></path>
            <path d="M41.9840996,6.44055 L35.2136641,6.44055 C34.5880391,6.44055 34.0810723,6.94635 34.0810723,7.5702 C34.0810723,8.19405 34.5880391,8.69985 35.2136641,8.69985 L41.9840996,8.69985 C42.6097246,8.69985 43.1166914,8.19405 43.1166914,7.5702 C43.1166914,6.94635 42.6097246,6.44055 41.9840996,6.44055 Z" id="Path"></path>
        </g>
    </g>
</svg>