<?xml version="1.0" encoding="UTF-8"?>
<svg width="100px" height="100px" viewBox="0 0 100 100" version="1.1" xmlns="http://www.w3.org/2000/svg" xmlns:xlink="http://www.w3.org/1999/xlink">
    <!-- Generator: Sketch 52.2 (67145) - http://www.bohemiancoding.com/sketch -->
    <title>Icons/100_gardener</title>
    <desc>Created with Sketch.</desc>
    <g id="Icons/100_gardener" stroke="none" stroke-width="1" fill="none" fill-rule="evenodd">
        <g id="farmer" transform="translate(14.000000, 16.000000)" fill="#4A4A4A">
            <path d="M1.42565625,65.2131148 L1.40625,65.2131148 C0.62971875,65.2131148 0,65.836959 0,66.6065574 C0,67.3761557 0.62971875,68 1.40625,68 L1.42565625,68 C2.2021875,68 2.83190625,67.3761557 2.83190625,66.6065574 C2.83190625,65.836959 2.2021875,65.2131148 1.42565625,65.2131148 Z" id="Path"></path>
            <path d="M67.5817031,47.1567459 C67.5611719,47.1497787 67.5406406,47.1430902 67.5199688,47.136959 L55.8849375,43.7164754 C55.5713437,43.601377 55.351125,43.3870656 55.3248281,43.1784672 L55.3248281,39.7595164 C55.3248281,39.7135328 55.3222969,39.6681066 55.3179375,39.6232377 L59.7535312,37.1030574 C59.779125,37.0885656 59.8041562,37.0730984 59.8289062,37.0569344 C61.8647344,35.7246639 63.2017969,33.3523279 63.4057031,30.7107787 C63.4085156,30.6753852 63.4097812,30.6399918 63.4097812,30.604459 L63.4097812,29.159459 C65.4685312,28.5567951 66.9751875,26.6663115 66.9751875,24.4335984 C66.9751875,23.2713279 66.56625,22.2022787 65.8843594,21.3588279 C66.5150625,21.5568361 67.1373281,21.7632049 67.7446875,21.9829508 C67.9024687,22.040082 68.0654531,22.0675328 68.2268906,22.0675328 C68.6572031,22.0675328 69.0745781,21.8714754 69.346125,21.5180984 C69.7193437,21.0322049 69.7298906,20.361959 69.372,19.8647787 L62.8631719,10.8246803 L62.8631719,4.07317213 C62.8631719,3.49545082 62.5033125,2.9775082 61.9585312,2.77141803 C61.6592812,2.65827049 54.5540625,0 47.6772188,0 C40.800375,0 33.6950156,2.65827049 33.3959063,2.77141803 C32.8512656,2.9775082 32.4912656,3.49545082 32.4912656,4.07317213 L32.4912656,10.8267705 L26.0119688,19.8677049 C25.6554844,20.3651639 25.6670156,21.0347131 26.0405156,21.5196311 C26.4140156,22.0048279 27.0627188,22.1926639 27.6409688,21.9833689 C28.2348281,21.7685 28.8431719,21.5665902 29.4595313,21.3724836 C28.7839688,22.2138443 28.3791094,23.2777377 28.3791094,24.433877 C28.3791094,26.6665902 29.8859063,28.5572131 31.9446563,29.1597377 L31.9446563,30.6047377 C31.9446563,30.6401311 31.9460625,30.6755246 31.9487344,30.710918 C32.1532031,33.3636148 33.4808438,35.7360902 35.4997969,37.0572131 C35.5249688,37.0736557 35.5505625,37.0892623 35.5768594,37.1041721 L40.0636406,39.6458115 C40.0606875,39.6834344 40.057875,39.7211967 40.057875,39.7596557 L40.057875,42.5562951 C40.0435313,42.636 40.0348125,42.7176557 40.0348125,42.8014016 L40.0348125,43.1375 C40.0348125,43.3583607 39.8034844,43.5939918 39.4693594,43.7166148 L27.8240625,47.136959 C27.80325,47.1430902 27.7822969,47.1497787 27.7617656,47.1568852 C25.160625,48.0531475 23.34375,50.4777377 23.34375,53.0528197 L23.34375,65.2131148 L14.34375,65.2131148 L14.34375,51.557377 L17.015625,51.557377 C19.7295469,51.557377 21.9375,49.3695328 21.9375,46.6803279 L21.9375,27.5843115 C21.9375,26.8147131 21.3077812,26.1908689 20.53125,26.1908689 C19.7547188,26.1908689 19.125,26.8147131 19.125,27.5843115 L19.125,46.6803279 C19.125,47.8328443 18.1787344,48.7704918 17.015625,48.7704918 L15.5690156,48.7704918 L15.5690156,27.4551393 C15.5690156,26.685541 14.9392969,26.0616967 14.1627656,26.0616967 C13.3862344,26.0616967 12.7565156,26.685541 12.7565156,27.4551393 L12.7565156,48.7704918 L9.20039062,48.7704918 L9.20039062,27.4551393 C9.20039062,26.685541 8.57067187,26.0616967 7.79414062,26.0616967 C7.01760938,26.0616967 6.38789062,26.685541 6.38789062,27.4551393 L6.38789062,48.7704918 L4.921875,48.7704918 C3.75876562,48.7704918 2.8125,47.8328443 2.8125,46.6803279 L2.8125,27.5843115 C2.8125,26.8147131 2.18278125,26.1908689 1.40625,26.1908689 C0.62971875,26.1908689 0,26.8147131 0,27.5843115 L0,46.6803279 C0,49.3695328 2.20795312,51.557377 4.921875,51.557377 L7.59375,51.557377 L7.59375,65.2131148 L5.62289063,65.2131148 C4.84635938,65.2131148 4.21664063,65.836959 4.21664063,66.6065574 C4.21664063,67.3761557 4.84635938,68 5.62289063,68 L70.59375,68 C71.3702813,68 72,67.3761557 72,66.6065574 C72,66.4411557 72,53.0528197 72,53.0528197 C72,50.4777377 70.183125,48.0531475 67.5817031,47.1567459 Z M11.53125,65.2131148 L10.40625,65.2131148 L10.40625,51.557377 L11.53125,51.557377 L11.53125,65.2131148 Z M35.3039063,5.05959016 C37.377,4.36941803 42.6761719,2.78688525 47.6772188,2.78688525 C52.6674375,2.78688525 57.9751875,4.37039344 60.0503906,5.06028689 L60.0503906,9.52083607 C57.7977188,9.07618852 53.4805312,8.43283607 47.3485781,8.43283607 C41.4144844,8.43283607 37.4336719,9.03828689 35.3039063,9.48460656 L35.3039063,5.05959016 Z M34.7589844,12.4760492 C36.0323438,12.1425984 40.2039844,11.2197213 47.3485781,11.2197213 C54.5702344,11.2197213 59.202,12.1628033 60.6106406,12.4952787 L64.6389844,18.0903689 C59.4673594,16.702918 53.6910469,15.9784672 47.6926875,15.9784672 C41.6888438,15.9784672 35.9078906,16.7041721 30.7326094,18.0941311 L34.7589844,12.4760492 Z M37.0148906,34.7084262 C35.7472969,33.8610738 34.9069219,32.3124016 34.7572969,30.5491393 L34.7572969,27.9669508 C34.7572969,27.1973525 34.1275781,26.5735082 33.3510469,26.5735082 C32.160375,26.5735082 31.19175,25.6137049 31.19175,24.433877 C31.19175,23.2540492 32.1605156,22.2942459 33.3510469,22.2942459 C34.1008594,22.2942459 34.7189062,21.7112295 34.7556094,20.9692213 L34.8034219,20.0038443 C38.8444219,19.1886803 43.1983125,18.7654918 47.6926875,18.7654918 C52.1926875,18.7654918 56.5517812,19.1896557 60.5971406,20.0067705 L60.5971406,20.9008033 C60.5971406,21.6704016 61.2268594,22.2942459 62.0033906,22.2942459 C63.1940625,22.2942459 64.1625469,23.2540492 64.1625469,24.433877 C64.1625469,25.6137049 63.1939219,26.5735082 62.0033906,26.5735082 C61.2268594,26.5735082 60.5971406,27.1973525 60.5971406,27.9669508 L60.5971406,30.5488607 C60.4480781,32.3020902 59.5978594,33.8509016 58.31325,34.7088443 L49.7607187,39.5680574 C49.735125,39.5826885 49.7099531,39.5980164 49.6853437,39.6141803 C48.427875,40.4370082 46.9267031,40.4368689 45.669375,39.6141803 C45.6442031,39.5977377 45.6186094,39.5819918 45.5923125,39.5672213 L37.0148906,34.7084262 Z M52.5120469,43.260959 L52.5120469,44.161541 L47.6976094,48.9106721 L42.8705156,44.1605656 L42.8705156,41.2357295 L44.1593438,41.9656148 C45.2465156,42.6665164 46.4617969,43.0166885 47.6773594,43.0166885 C48.8930625,43.0166885 50.108625,42.6662377 51.1959375,41.9650574 L52.5120469,41.2173361 L52.5120469,42.6989836 C52.5095156,42.7329836 52.5068438,42.7668443 52.5068438,42.8014016 L52.5068438,43.1375 C52.5068438,43.1790246 52.5103594,43.2198525 52.5120469,43.260959 Z M29.9472187,65.2131148 L26.15625,65.2131148 L26.15625,53.0528197 C26.15625,51.6979754 27.2295,50.3042541 28.6575469,49.7988525 L29.9472187,49.4201148 L29.9472187,65.2131148 Z M62.578125,65.2131148 L60.9336562,65.2131148 L60.9336562,55.4095492 C60.9336562,54.6399508 60.3039375,54.0161066 59.5274062,54.0161066 C58.750875,54.0161066 58.1211562,54.6399508 58.1211562,55.4095492 L58.1211562,65.2131148 L37.2166875,65.2131148 L37.2166875,55.4095492 C37.2166875,54.6399508 36.5869687,54.0161066 35.8104375,54.0161066 C35.0339062,54.0161066 34.4041875,54.6399508 34.4041875,55.4095492 L34.4041875,65.2131148 L32.7597187,65.2131148 L32.7597187,48.594082 L40.3057969,46.3776721 C40.32675,46.371541 40.3475625,46.3648525 40.3680937,46.3577459 C40.5497812,46.2951803 40.7231719,46.2211885 40.8885469,46.1378607 L46.7078906,51.8642131 C46.9821094,52.134123 47.3404219,52.2688689 47.698875,52.2688689 C48.05775,52.2688689 48.416625,52.1335656 48.6909844,51.862959 L54.4855781,46.1470574 C54.6451875,46.2263443 54.8116875,46.2975492 54.9863438,46.3577459 C55.006875,46.3648525 55.0274062,46.3714016 55.0480781,46.3775328 L62.578125,48.5911557 L62.578125,65.2131148 Z M69.1875,65.2131148 L65.390625,65.2131148 L65.390625,49.4178852 L66.6862031,49.7987131 C68.1141094,50.3042541 69.1875,51.6979754 69.1875,53.0528197 L69.1875,65.2131148 Z" id="Shape" fill-rule="nonzero"></path>
            <path d="M53.4823594,23.0404344 C52.6035937,23.0404344 51.8886562,23.7488607 51.8886562,24.619623 C51.8886562,25.4903852 52.6035937,26.1988115 53.4823594,26.1988115 C54.361125,26.1988115 55.0760625,25.4903852 55.0760625,24.619623 C55.0760625,23.7488607 54.361125,23.0404344 53.4823594,23.0404344 Z" id="Path"></path>
            <path d="M41.8720781,23.0404344 C40.9933125,23.0404344 40.278375,23.7488607 40.278375,24.619623 C40.278375,25.4903852 40.9933125,26.1988115 41.8720781,26.1988115 C42.7508438,26.1988115 43.4657812,25.4903852 43.4657812,24.619623 C43.4657812,23.7488607 42.7508437,23.0404344 41.8720781,23.0404344 Z" id="Path"></path>
            <path d="M35.8104375,49.8250492 C35.0339063,49.8250492 34.4041875,50.4488934 34.4041875,51.2184918 L34.4041875,51.2381393 C34.4041875,52.0077377 35.0339063,52.631582 35.8104375,52.631582 C36.5869687,52.631582 37.2166875,52.0077377 37.2166875,51.2381393 L37.2166875,51.2184918 C37.2166875,50.4488934 36.5869687,49.8250492 35.8104375,49.8250492 Z" id="Path"></path>
            <path d="M59.5274062,49.8250492 C58.750875,49.8250492 58.1211562,50.4488934 58.1211562,51.2184918 L58.1211562,51.2381393 C58.1211562,52.0077377 58.7507344,52.631582 59.5274062,52.631582 C60.3039375,52.631582 60.9336562,52.0077377 60.9336562,51.2381393 L60.9336562,51.2184918 C60.9336562,50.4488934 60.3039375,49.8250492 59.5274062,49.8250492 Z" id="Path"></path>
        </g>
    </g>
</svg>
