<?xml version="1.0" encoding="UTF-8"?>
<svg width="100px" height="100px" viewBox="0 0 100 100" version="1.1" xmlns="http://www.w3.org/2000/svg" xmlns:xlink="http://www.w3.org/1999/xlink">
    <!-- Generator: Sketch 52.2 (67145) - http://www.bohemiancoding.com/sketch -->
    <title>Icons/100_clothes</title>
    <desc>Created with Sketch.</desc>
    <g id="Icons/100_clothes" stroke="none" stroke-width="1" fill="none" fill-rule="evenodd">
        <g id="Group-22" transform="translate(12.000000, 16.000000)" fill="#4A4A4A">
            <path d="M17.3479799,29.40708 C16.7445881,30.00363 16.7346817,30.93993 17.3251651,31.53753 C17.6211573,31.83693 18.0040559,31.98693 18.3887558,31.98693 C18.7709039,31.98693 19.1550033,31.83873 19.4569994,31.54218 C19.4592509,31.53993 19.461052,31.53753 19.4634536,31.53573 C20.0650442,30.93693 20.0719487,30.00123 19.4798142,29.40528 C18.8876797,28.80948 17.9513717,28.81008 17.3479799,29.40708" id="Fill-1"></path>
            <path d="M8.71679025,13.36587 C9.54577856,13.36587 10.2177649,12.69432 10.2177649,11.86587 L10.2177649,7.85982 C10.2177649,7.03137 9.54577856,6.35982 8.71679025,6.35982 C7.88780195,6.35982 7.21581559,7.03137 7.21581559,7.85982 L7.21581559,11.86587 C7.21581559,12.69432 7.88780195,13.36587 8.71679025,13.36587" id="Fill-3"></path>
            <path d="M14.1062349,13.36587 C14.9352232,13.36587 15.6072096,12.69432 15.6072096,11.86587 L15.6072096,7.85982 C15.6072096,7.03137 14.9352232,6.35982 14.1062349,6.35982 C13.2776969,6.35982 12.6052602,7.03137 12.6052602,7.85982 L12.6052602,11.86587 C12.6052602,12.69432 13.2776969,13.36587 14.1062349,13.36587" id="Fill-5"></path>
            <path d="M19.4962499,13.36587 C20.3247879,13.36587 20.9972246,12.69432 20.9972246,11.86587 L20.9972246,7.85982 C20.9972246,7.03137 20.3247879,6.35982 19.4962499,6.35982 C18.6672616,6.35982 17.9952752,7.03137 17.9952752,7.85982 L17.9952752,11.86587 C17.9952752,12.69432 18.6672616,13.36587 19.4962499,13.36587" id="Fill-7"></path>
            <path d="M24.8856945,13.36587 C25.7146828,13.36587 26.3866692,12.69432 26.3866692,11.86587 L26.3866692,7.85982 C26.3866692,7.03137 25.7146828,6.35982 24.8856945,6.35982 C24.0567062,6.35982 23.3847199,7.03137 23.3847199,7.85982 L23.3847199,11.86587 C23.3847199,12.69432 24.0567062,13.36587 24.8856945,13.36587" id="Fill-9"></path>
            <path d="M38.4454696,11.36313 C38.8400758,11.36313 39.2276275,11.20263 39.5066587,10.92303 C39.78584,10.64418 39.9464442,10.25748 39.9464442,9.86313 C39.9464442,9.46818 39.78584,9.08148 39.5066587,8.80263 C39.2258263,8.52363 38.8400758,8.36313 38.4454696,8.36313 C38.0508634,8.36313 37.6633117,8.52303 37.3842805,8.80263 C37.1034481,9.08148 36.9444949,9.46818 36.9444949,9.86313 C36.9444949,10.25748 37.1034481,10.64418 37.3842805,10.92303 C37.6633117,11.20263 38.0490622,11.36313 38.4454696,11.36313" id="Fill-11"></path>
            <path d="M44.524417,11.36313 C44.9196236,11.36313 45.3065749,11.20263 45.585606,10.92303 C45.8647873,10.64418 46.0253916,10.25748 46.0253916,9.86313 C46.0253916,9.46818 45.8647873,9.08148 45.585606,8.80263 C45.3065749,8.52363 44.9196236,8.36313 44.524417,8.36313 C44.1280096,8.36313 43.7422591,8.52303 43.4632279,8.80263 C43.1828458,9.08148 43.0234423,9.46818 43.0234423,9.86313 C43.0234423,10.25748 43.1828458,10.64418 43.4632279,10.92303 C43.7422591,11.20263 44.1280096,11.36313 44.524417,11.36313" id="Fill-13"></path>
            <path d="M50.6033643,11.36313 C50.998571,11.36313 51.3843214,11.20263 51.6645534,10.92303 C51.9437347,10.64418 52.1049394,10.25748 52.1049394,9.86313 C52.1049394,9.46818 51.9443351,9.08148 51.6645534,8.80263 C51.3855222,8.52363 50.998571,8.36313 50.6033643,8.36313 C50.2087581,8.36313 49.8218068,8.52303 49.5409745,8.80263 C49.2617932,9.08148 49.1023897,9.46818 49.1023897,9.86313 C49.1023897,10.25748 49.2617932,10.64418 49.5409745,10.92303 C49.8218068,11.20263 50.2087581,11.36313 50.6033643,11.36313" id="Fill-15"></path>
            <path d="M54.7116971,56.552385 C53.8831591,56.552385 53.2107224,57.223935 53.2107224,58.052385 C53.2107224,58.880385 53.8831591,59.552385 54.7116971,59.552385 L70.6994788,59.552385 C72.435506,59.552385 73.8479232,60.963885 73.8479232,62.698935 C73.8479232,64.433835 72.435506,65.845335 70.6994788,65.845335 L68.5634417,65.845335 C68.5551864,65.845335 68.5470811,65.846535 68.5388257,65.846535 C68.5305704,65.846535 68.5224651,65.845335 68.5136094,65.845335 L48.07874,65.845335 C44.6305509,65.845335 41.8250791,63.042285 41.8250791,59.596335 L41.8250791,56.508435 C41.8250791,53.062485 44.6305509,50.259435 48.07874,50.259435 L70.6994788,50.259435 C72.435506,50.259435 73.8479232,51.670935 73.8479232,53.405835 C73.8479232,55.140885 72.435506,56.552385 70.6994788,56.552385 L54.7116971,56.552385 Z M30.7652975,53.833035 C25.741085,53.833035 21.5078862,50.384835 20.3113092,45.731235 C21.0488881,45.988485 21.8298452,46.126185 22.6231103,46.126185 C24.0883618,46.126185 25.5130869,45.663885 26.6945041,44.828985 C27.8753209,45.663885 29.300046,46.126185 30.7652975,46.126185 C32.2305489,46.126185 33.6546737,45.663885 34.8360908,44.828985 C36.017508,45.663885 37.4422331,46.126185 38.9074846,46.126185 C38.9901883,46.126185 39.0710908,46.117935 39.1507926,46.105185 C39.4064086,46.845735 39.7992136,47.521935 40.2993384,48.104985 C38.4378296,51.598935 34.7452819,53.833035 30.7652975,53.833035 Z M30.7652975,32.261835 C35.3521259,32.261835 39.4334261,35.183835 40.9426561,39.452985 C39.8732117,40.380435 39.1255762,41.667885 38.8921747,43.125585 C37.7589388,43.121535 36.710508,42.660435 35.9396074,41.825985 C35.6551727,41.517885 35.2553131,41.343135 34.8360908,41.343135 C34.4168686,41.343135 34.017009,41.517885 33.7331747,41.825985 C32.9586717,42.664485 31.9045372,43.126185 30.7652975,43.126185 C29.6254573,43.126185 28.5719232,42.664485 27.7974203,41.825985 C27.5129856,41.517885 27.1131259,41.343135 26.6945041,41.343135 C26.2752819,41.343135 25.8754222,41.517885 25.5909875,41.825985 C24.817085,42.664485 23.7629505,43.126185 22.6231103,43.126185 C21.6497283,43.126185 20.739237,42.788085 20.0115645,42.167085 C20.4618569,36.630585 25.1108257,32.261835 30.7652975,32.261835 Z M70.6888218,40.944735 C72.430853,40.944735 73.8479232,42.361035 73.8479232,44.101785 C73.8479232,45.842685 72.430853,47.258835 70.6888218,47.258835 L44.9753248,47.258835 C43.2332936,47.258835 41.8162234,45.842685 41.8162234,44.101785 C41.8162234,42.361035 43.2332936,40.944735 44.9753248,40.944735 L70.6888218,40.944735 Z M6.8459154,3.149985 L54.6846795,3.149985 C56.8042058,3.149985 58.5286756,4.873335 58.5286756,6.991485 L58.5286756,17.243085 L3.0019193,17.243085 L3.0019193,6.991485 C3.0019193,4.873335 4.72623899,3.149985 6.8459154,3.149985 Z M76.8498725,53.405385 C76.8498725,51.549585 76.0214846,49.883835 74.7156366,48.755835 C76.0214846,47.626185 76.8498725,45.959235 76.8498725,44.101785 C76.8498725,40.706235 74.0859778,37.944735 70.6888218,37.944735 L49.213777,37.944735 C48.336007,34.768335 46.6469602,31.868535 44.2986854,29.522535 C41.3395138,26.564685 37.5906795,24.693135 33.4571454,24.109035 C29.4608004,23.544735 25.3089544,24.273735 21.7647029,26.161635 C21.0329778,26.551185 20.7561981,27.460035 21.1461513,28.190685 C21.5361045,28.921935 22.4453949,29.199135 23.1771201,28.808835 C29.4830148,25.449585 37.1180226,26.588685 42.1761571,31.643535 C43.9575138,33.423735 45.2866269,35.581035 46.0746386,37.944135 L44.9753248,37.944135 C44.5161766,37.944135 44.0694865,37.996335 43.6385567,38.091885 C41.6104398,32.832435 36.4966191,29.261835 30.7652975,29.261835 C23.1589583,29.261835 16.9704398,35.445735 16.9704398,43.047135 C16.9704398,50.648535 23.1589583,56.833035 30.7652975,56.833035 C33.8552039,56.833035 36.809122,55.777785 39.1859154,53.950185 C38.9514632,54.762885 38.8231298,55.620735 38.8231298,56.507835 L38.8231298,57.021735 C32.4990733,60.676785 24.5590674,59.651985 19.3538374,54.450585 C14.144855,49.245135 13.1183384,41.187285 16.8584671,34.856835 C17.2799407,34.143135 17.0430869,33.223935 16.3289232,32.802585 C15.6153598,32.381235 14.6949622,32.618535 14.2733384,33.331635 C9.8372078,40.841085 11.0532975,50.398335 17.2313092,56.572335 C20.2978004,59.636235 24.355085,61.585035 28.6568784,62.059035 C29.3522799,62.135835 30.0499329,62.173335 30.7459349,62.173335 C33.5479544,62.173335 36.3282097,61.556835 38.858853,60.380835 C39.0364183,62.481435 39.9182409,64.384635 41.2685177,65.851185 L6.8459154,65.851185 C4.72623899,65.851785 3.0019193,64.128585 3.0019193,62.010435 L3.0019193,20.243535 L58.5286756,20.243535 L58.5286756,31.263285 C58.5286756,32.091885 59.2005119,32.763285 60.0296503,32.763285 C60.8586386,32.763285 61.530625,32.091885 61.530625,31.263285 L61.530625,6.991485 C61.530625,3.219135 58.4594807,0.149985 54.6846795,0.149985 L6.8459154,0.149985 C3.07111423,0.149985 -3.00194932e-05,3.219135 -3.00194932e-05,6.991485 L-3.00194932e-05,62.010435 C-3.00194932e-05,65.782635 3.07111423,68.851785 6.8459154,68.851785 L46.5424924,68.851785 C46.702046,68.851785 46.8555957,68.826585 46.9998394,68.780385 C47.3539193,68.821935 47.7134027,68.845335 48.0781396,68.845335 L68.5142097,68.845335 C68.5224651,68.845335 68.5305704,68.844135 68.5388257,68.844135 C68.5476815,68.844135 68.5551864,68.845335 68.5640421,68.845335 L70.6994788,68.845335 C74.0912312,68.845335 76.8504729,66.087885 76.8504729,62.698935 C76.8504729,60.843735 76.0225353,59.179785 74.719239,58.051785 C76.0225353,56.924385 76.8498725,55.260435 76.8498725,53.405385 Z" id="Fill-17"></path>
            <path d="M49.0830421,56.5518 C48.6884359,56.5518 48.3008842,56.7117 48.021853,56.9913 C47.7426717,57.27015 47.5820674,57.65685 47.5820674,58.0518 C47.5820674,58.44795 47.7426717,58.83345 48.021853,59.1117 C48.3008842,59.39235 48.6884359,59.5518 49.0830421,59.5518 C49.4776483,59.5518 49.8652,59.39235 50.1442312,59.1117 C50.4234125,58.83345 50.5840168,58.44615 50.5840168,58.0518 C50.5840168,57.65685 50.4234125,57.27195 50.1442312,56.9913 C49.8652,56.7117 49.4776483,56.5518 49.0830421,56.5518" id="Fill-20"></path>
        </g>
    </g>
</svg>
