<?xml version="1.0" encoding="UTF-8"?>
<svg width="100px" height="100px" viewBox="0 0 100 100" version="1.1" xmlns="http://www.w3.org/2000/svg" xmlns:xlink="http://www.w3.org/1999/xlink">
    <!-- Generator: Sketch 52.2 (67145) - http://www.bohemiancoding.com/sketch -->
    <title>Icons/100_key</title>
    <desc>Created with Sketch.</desc>
    <g id="Icons/100_key" stroke="none" stroke-width="1" fill="none" fill-rule="evenodd">
        <g id="room-key-2" transform="translate(18.000000, 12.000000)" fill="#4A4A4A">
            <path d="M48.5722617,21.6460058 C47.1685981,20.2370409 44.6166729,20.2370409 43.2130093,21.6460058 L37.853757,27.025499 C37.0881495,27.6659649 36.7053458,28.6905302 36.7053458,29.7152456 C36.7053458,30.739961 37.0881495,31.6364932 37.853757,32.4049922 L46.9134953,41.4989474 C47.6791028,42.2674464 48.5722617,42.6516959 49.5931215,42.6516959 C50.4862804,42.6516959 51.5071402,42.2674464 52.2727477,41.4989474 L57.632,36.1194542 C58.3976075,35.4789883 58.7804112,34.454423 58.7804112,33.4297076 C58.7804112,32.4049922 58.3976075,31.50846 57.632,30.739961 L48.5722617,21.6460058 Z M55.8455327,34.454423 L50.4862804,39.8339162 C49.9759252,40.3461988 49.2103178,40.3461988 48.6998131,39.8339162 L39.6400748,30.739961 C39.3848224,30.4837446 39.257271,30.2276784 39.257271,29.8434288 C39.257271,29.4591793 39.3848224,29.202963 39.6400748,28.9468967 L44.9993271,23.4393704 C45.2545794,23.183154 45.5096822,23.0551209 45.892486,23.0551209 C46.2752897,23.0551209 46.6580935,23.183154 46.7856449,23.5674035 L55.8453832,32.6613587 C56.1006355,32.917575 56.2281869,33.1736413 56.2281869,33.5578908 C56.2281869,33.9421404 56.1006355,34.1982066 55.8455327,34.454423 Z" id="Shape" fill-rule="nonzero"></path>
            <path d="M46.0201869,28.0502144 C45.5098318,27.5379318 44.7442243,27.5379318 44.2337196,28.0502144 C43.723215,28.5624971 43.7233645,29.3309961 44.2337196,29.8434288 L49.592972,35.222922 C49.8482243,35.4791384 50.1033271,35.6071715 50.4861308,35.6071715 C50.7413832,35.6071715 51.1241869,35.4791384 51.3792897,35.222922 C51.8896449,34.7106394 51.8896449,33.9421404 51.3792897,33.4297076 L46.0201869,28.0502144 Z" id="Path"></path>
            <path d="M61.3323364,27.025499 L44.1061682,9.73427096 C42.4686355,8.09055361 40.3122243,7.22974464 38.1300935,7.14854191 C36.1979813,3.05283236 32.4237757,0 26.88,0 C21.6716262,0 18.0257196,2.6948499 16.0011963,6.41741715 C15.8002243,6.40946199 15.5986542,6.40420858 15.3958879,6.40420858 C6.97420561,6.40420858 0.0837383178,13.3206998 0.0837383178,21.7741891 C0.0837383178,27.4331637 3.17188785,32.4028908 7.73981308,35.0705731 L7.73981308,47.3908733 C7.73981308,47.7751228 7.86736449,48.0313392 8.12261682,48.2874055 L9.78138318,49.9524366 L8.12261682,51.6174678 C7.61226168,52.1297505 7.61226168,52.8982495 8.12261682,53.4106823 L9.78138318,55.0757135 L8.12261682,56.7408947 C7.61226168,57.2531774 7.61226168,58.0216764 8.12261682,58.5341092 L9.78138318,60.1991404 L8.12261682,61.8641715 C7.86736449,62.1203879 7.73981308,62.3764542 7.73981308,62.7607037 C7.73981308,63.1449532 7.86736449,63.4011696 8.12261682,63.6572359 L9.78138318,65.3222671 L8.12261682,66.9874483 C7.61226168,67.499731 7.61226168,68.26823 8.12261682,68.7806628 L9.78138318,70.445694 L8.12261682,72.1108752 C7.61226168,72.6231579 7.61226168,73.3916569 8.12261682,73.9040897 L10.6746916,76.4658031 C10.9299439,76.7220195 11.1850467,76.8500526 11.5678505,76.8500526 L16.2890467,76.8500526 C16.4165981,76.8500526 16.5442991,76.8500526 16.6718505,76.8500526 C16.6965234,76.8500526 16.7216449,76.8488519 16.747215,76.8469006 C17.3649346,76.8188324 17.8059065,76.4482417 17.9982056,75.8777212 L22.7967103,68.6527797 C22.9242617,68.3965634 23.0519626,68.1404971 23.0519626,67.8842807 L23.0519626,35.070423 C25.1304673,33.8565848 26.9021308,32.1658869 28.2162243,30.1505283 L43.3405607,45.2134094 C44.9993271,46.8784405 47.2961495,47.7751228 49.592972,47.7751228 C51.8897944,47.7751228 54.1866168,47.0066238 55.9730841,45.0853762 L61.3323364,39.705883 C64.7775701,36.2474873 64.7775701,30.4837446 61.3323364,27.025499 Z M40.9161869,16.6507622 C40.9161869,18.0597271 39.7677757,19.2124756 38.3641121,19.2124756 C36.9604486,19.2124756 35.8120374,18.0597271 35.8120374,16.6507622 C35.8120374,15.6934405 36.3428785,14.8555965 37.1229907,14.4161111 C37.2482991,14.9990897 37.7133458,15.3699805 38.3641121,15.3699805 C39.0148785,15.3699805 39.4797757,14.9990897 39.6052336,14.4161111 C40.3853458,14.8557466 40.9161869,15.6935906 40.9161869,16.6507622 Z M26.88,2.56171345 C30.9976822,2.56171345 33.7969346,4.63440936 35.4078505,7.45969396 C33.959028,7.85264912 32.5945421,8.60929045 31.4736449,9.73442105 L28.0596636,13.1612963 C25.9074393,9.98928655 22.6065047,7.658423 18.7705421,6.78365497 C20.4290093,4.30989864 23.0984673,2.56171345 26.88,2.56171345 Z M14.1547664,14.4161111 C14.2800748,14.9990897 14.7451215,15.3699805 15.3958879,15.3699805 C16.0466542,15.3699805 16.5115514,14.9990897 16.6370093,14.4161111 C17.4171215,14.8555965 17.9479626,15.6935906 17.9479626,16.6507622 C17.9479626,18.0597271 16.7995514,19.2124756 15.3958879,19.2124756 C13.9922243,19.2124756 12.8438131,18.0597271 12.8438131,16.6507622 C12.8438131,15.6935906 13.3746542,14.8557466 14.1547664,14.4161111 Z M10.802243,73.0074074 L12.4610093,71.3423762 C12.9713645,70.8300936 12.9713645,70.0615945 12.4610093,69.5491618 L10.802243,67.8841306 L12.4610093,66.2190994 C12.7162617,65.962883 12.8438131,65.7068168 12.8438131,65.3225673 C12.8438131,64.9383177 12.7162617,64.6821014 12.4610093,64.4260351 L10.802243,62.7610039 L12.4610093,61.0959727 C12.9713645,60.5836901 12.9713645,59.815191 12.4610093,59.3027583 L10.802243,57.6374269 L12.4610093,55.9723957 C12.9713645,55.4601131 12.9713645,54.691614 12.4610093,54.1791813 L10.802243,52.5141501 L12.4610093,50.8491189 C12.7162617,50.5929025 12.8438131,50.3368363 12.8438131,49.9525867 C12.8438131,49.5683372 12.7162617,49.3121209 12.4610093,49.0560546 L10.2917383,46.8785906 L10.2917383,36.2597953 C10.4802991,36.3273392 10.6702056,36.3920312 10.8620561,36.4522203 C12.3322617,36.9427388 13.8139813,37.1441696 15.3957383,37.1441696 L15.3957383,74.2883392 L12.0780561,74.2883392 L10.802243,73.0074074 Z M20.4998879,67.4998811 L18.075514,71.1502515 L18.075514,36.9065653 C18.9085607,36.7573684 19.7184299,36.5392768 20.4998879,36.2596452 L20.4998879,67.4998811 Z M21.4210093,33.0534133 C21.3220187,33.0763782 21.2264673,33.1142027 21.1379439,33.1734912 C20.8749159,33.3175848 20.6072523,33.4525224 20.3352523,33.5778538 C18.8140561,34.2243236 17.1446729,34.5824561 15.3958879,34.5824561 C15.0084486,34.5824561 14.6256449,34.5620429 14.246729,34.5276706 C12.6530093,34.3655653 11.0968224,33.9404893 9.65383178,33.1736413 C9.54766355,33.1024951 9.43117757,33.0532632 9.31080374,33.0215926 C5.34280374,30.8433782 2.63581308,26.6107797 2.63581308,21.7741891 C2.63581308,14.893271 8.11499065,9.23744834 14.909757,8.97838012 C14.6314766,9.8442924 14.4266168,10.739924 14.2953271,11.6496647 C12.0127103,12.1584951 10.2918879,14.2121287 10.2918879,16.6509123 C10.2918879,19.468692 12.5887103,21.7741891 15.3958879,21.7741891 C18.2030654,21.7741891 20.4998879,19.468692 20.4998879,16.6509123 C20.4998879,14.3449649 18.9613458,12.3830409 16.8641495,11.7460273 C17.0100935,10.8628538 17.2403738,9.99033723 17.556785,9.15474464 C23.5391402,10.1907173 28.1309907,15.4420273 28.1546168,21.7255575 C28.1540187,21.8093119 28.152972,21.8927661 28.150729,21.9760702 C28.1502804,22.0018869 28.1493832,22.0275536 28.148785,22.0533704 C28.0859813,23.9504522 27.5860935,25.7360117 26.7522991,27.4098986 C26.6859065,27.5431852 26.6459813,27.6851774 26.6292336,27.8289708 C25.4394019,30.0375049 23.6221308,31.8604386 21.4210093,33.0534133 Z M59.4183178,38.0407018 L54.0590654,43.4201949 C51.5069907,45.8537251 47.4238505,45.8537251 44.9993271,43.4201949 L29.4633271,27.8253684 C29.8244486,26.9860234 30.1133458,26.1088538 30.3213458,25.2013645 C30.3256822,25.1829025 30.329271,25.1641404 30.3334579,25.1456784 C30.3558879,25.0458635 30.3780187,24.9458986 30.3986542,24.8453333 C30.4127103,24.7768889 30.425271,24.7081442 30.4382804,24.6393996 C30.4497944,24.57846 30.461757,24.5178207 30.4726729,24.456731 C30.4798505,24.4162047 30.4861308,24.3755283 30.4928598,24.3348519 C30.6335701,23.5013606 30.7080374,22.6461053 30.7080374,21.774039 C30.7080374,21.754076 30.7072897,21.7342632 30.7072897,21.7143002 C30.7074393,21.6914854 30.7080374,21.6688207 30.7080374,21.6458558 C30.7080374,19.4683918 30.3252336,17.4191111 29.4320748,15.4978635 L33.2601121,11.6553684 C34.1837757,10.7745965 35.3084112,10.2142827 36.4820935,9.97112476 C36.6591402,10.5523021 36.7968598,11.1466881 36.8958505,11.7457271 C34.7986542,12.3827407 33.2601121,14.3446647 33.2601121,16.6506121 C33.2601121,19.4683918 35.5569346,21.7738889 38.3641121,21.7738889 C41.1712897,21.7738889 43.4681121,19.4683918 43.4681121,16.6506121 C43.4681121,14.2119786 41.7472897,12.1581949 39.4646729,11.6493645 C39.3824299,11.0791442 39.2711776,10.5146277 39.1310654,9.95926706 C40.3123738,10.1961209 41.4283364,10.7606374 42.3197009,11.6553684 L59.4183178,29.0749298 C60.6942804,30.2276784 61.3323364,31.8927096 61.3323364,33.5578908 C61.3323364,35.2230721 60.566729,36.8879532 59.4183178,38.0407018 Z" id="Shape" fill-rule="nonzero"></path>
        </g>
    </g>
</svg>