<?xml version="1.0" encoding="UTF-8"?>
<svg width="100px" height="100px" viewBox="0 0 100 100" version="1.1" xmlns="http://www.w3.org/2000/svg" xmlns:xlink="http://www.w3.org/1999/xlink">
    <!-- Generator: Sketch 52.2 (67145) - http://www.bohemiancoding.com/sketch -->
    <title>Icons/100_bath</title>
    <desc>Created with Sketch.</desc>
    <g id="Icons/100_bath" stroke="none" stroke-width="1" fill="none" fill-rule="evenodd">
        <g id="bathtub" transform="translate(12.000000, 14.000000)" fill="#4A4A4A">
            <path d="M73.15,38.5707615 L71.8667168,38.5707615 L71.8667168,11.5782929 C71.8667168,5.15146444 66.7334336,0.0100920502 60.3167168,0.0100920502 C54.6364629,0.0100920502 50.5511016,4.22856904 50.0940645,10.4095732 C47.1119687,10.9741255 44.9167168,13.5465439 44.9167168,16.7196653 C44.9167168,17.4908787 45.43,18.0049707 46.2,18.0049707 L56.4667168,18.0049707 C57.2367168,18.0049707 57.75,17.4908787 57.75,16.7196653 C57.75,13.5816402 55.6033242,11.0306109 52.6717598,10.4284017 C53.0552559,6.34398326 55.5045176,2.58070293 60.3167168,2.58070293 C65.3217168,2.58070293 69.3,6.56525523 69.3,11.5781423 L69.3,38.5706109 L30.6759277,38.5706109 C30.0954199,35.6061088 27.5360723,33.4292385 24.3834336,33.4292385 C23.1001504,31.8868117 21.3034336,30.858477 19.2501504,30.858477 C16.8118672,30.858477 14.6301504,32.2724184 13.6034336,34.3289372 C12.5767168,33.8148452 11.4217168,33.4292385 10.2667168,33.4292385 C7.11407812,33.4292385 4.55473047,35.6061088 3.97422266,38.5706109 L3.85,38.5706109 C1.6682832,38.5706109 0,40.241523 0,42.4266778 C0,44.6118326 1.6682832,46.2827448 3.85,46.2827448 L5.39225586,46.2827448 L8.855,60.0361004 C9.8817168,64.0206527 13.475,66.8485356 17.5817168,66.8485356 L18.6084336,66.8485356 L16.9401504,70.1905105 C16.5551504,70.8332385 16.8118672,71.6044519 17.4534336,71.8614226 C17.5817168,71.9899079 17.8384336,71.9899079 17.9667168,71.9899079 C18.48,71.9899079 18.865,71.7327866 19.1217168,71.3471799 L21.3675,66.8485356 L56.98,66.8485356 L59.1617168,71.2186946 C59.4184336,71.7327866 59.8034336,71.9899079 60.3167168,71.9899079 C60.5734336,71.9899079 60.7017168,71.9899079 60.83,71.7327866 C61.3432832,71.4756653 61.6,70.7044519 61.3432832,70.0618745 L59.7357578,66.8416067 C63.7089277,66.700318 67.1449023,63.9209372 68.145,60.1645858 L71.6400781,46.2827448 L73.15,46.2827448 C75.3317168,46.2827448 77,44.6118326 77,42.4266778 C77,40.2416736 75.3317168,38.5707615 73.15,38.5707615 Z M55.055,15.4343598 L47.74,15.4343598 C48.2532832,13.8919331 49.7932832,12.8635983 51.4617168,12.8635983 C53.1301504,12.8635983 54.5417168,13.8919331 55.055,15.4343598 Z M10.2667168,36 C11.4217168,36 12.4484336,36.5140921 13.3467168,37.4139414 C13.6034336,37.7995481 14.1167168,37.9280335 14.63,37.7995481 C15.1432832,37.6710628 15.4,37.2854561 15.5282832,36.7712134 C15.9132832,34.8431799 17.4532832,33.4292385 19.3782832,33.4292385 C20.79,33.4292385 22.0732832,34.0719665 22.715,35.357272 C22.9717168,35.871364 23.6132832,36.1284854 24.1267168,36 C24.255,36 24.3834336,36 24.5117168,36 C26.18,36 27.5917168,37.0283347 28.105,38.5707615 L6.6732832,38.5707615 C7.1867168,37.0283347 8.5982832,36 10.2667168,36 Z M65.835,59.393523 C65.065,62.2212552 62.4982832,64.2779247 59.5467168,64.2779247 L17.71,64.2779247 C14.7582832,64.2779247 12.1917168,62.2214059 11.4217168,59.393523 L8.085,46.2828954 L68.915,46.2828954 L65.835,59.393523 Z M73.15,43.7121339 L70.5832832,43.7121339 L6.4167168,43.7121339 L3.85,43.7121339 C3.08,43.7121339 2.5667168,43.1980418 2.5667168,42.4268285 C2.5667168,41.6556151 3.08,41.141523 3.85,41.141523 L5.1332832,41.141523 L29.5165664,41.141523 L73.15,41.141523 C73.92,41.141523 74.4332832,41.6556151 74.4332832,42.4268285 C74.4332832,43.1980418 73.92,43.7121339 73.15,43.7121339 Z" id="Shape" fill-rule="nonzero"></path>
            <path d="M46.2,23.7890711 C46.97,23.7890711 47.4832832,23.2749791 47.4832832,22.5037657 L47.4832832,21.8610377 C47.4832832,21.0898243 46.97,20.5757322 46.2,20.5757322 C45.43,20.5757322 44.9167168,21.0898243 44.9167168,21.8610377 L44.9167168,22.5037657 C44.9167168,23.2749791 45.43,23.7890711 46.2,23.7890711 Z" id="Path"></path>
            <path d="M46.2,29.7018075 C46.97,29.7018075 47.4832832,29.0590795 47.4832832,28.4165021 L47.4832832,27.0025607 C47.4832832,26.2313473 46.97,25.7172552 46.2,25.7172552 C45.43,25.7172552 44.9167168,26.2313473 44.9167168,27.0025607 L44.9167168,28.4165021 C44.9167168,29.1875649 45.43,29.7018075 46.2,29.7018075 Z" id="Path"></path>
            <path d="M46.2,34.7146946 C46.97,34.7146946 47.4832832,34.2006025 47.4832832,33.4293891 L47.4832832,32.7866611 C47.4832832,32.0154477 46.97,31.5013556 46.2,31.5013556 C45.43,31.5013556 44.9167168,32.0154477 44.9167168,32.7866611 L44.9167168,33.4293891 C44.9167168,34.2004519 45.43,34.7146946 46.2,34.7146946 Z" id="Path"></path>
            <path d="M51.3332832,23.7890711 C52.1032832,23.7890711 52.6165664,23.2749791 52.6165664,22.5037657 L52.6165664,21.8610377 C52.6165664,21.0898243 52.1032832,20.5757322 51.3332832,20.5757322 C50.5632832,20.5757322 50.05,21.0898243 50.05,21.8610377 L50.05,22.5037657 C50.05,23.2749791 50.5632832,23.7890711 51.3332832,23.7890711 Z" id="Path"></path>
            <path d="M50.05,28.4163515 C50.05,29.1875649 50.5632832,29.7016569 51.3332832,29.7016569 C52.1032832,29.7016569 52.6165664,29.0589289 52.6165664,28.4163515 L52.6165664,27.00241 C52.6165664,26.2311967 52.1032832,25.7171046 51.3332832,25.7171046 C50.5632832,25.7171046 50.05,26.2311967 50.05,27.00241 L50.05,28.4163515 Z" id="Path"></path>
            <path d="M50.05,33.4292385 C50.05,34.2004519 50.5632832,34.7145439 51.3332832,34.7145439 C52.1032832,34.7145439 52.6165664,34.2004519 52.6165664,33.4292385 L52.6165664,32.7865105 C52.6165664,32.0152971 52.1032832,31.501205 51.3332832,31.501205 C50.5632832,31.501205 50.05,32.0152971 50.05,32.7865105 L50.05,33.4292385 Z" id="Path"></path>
            <path d="M56.4667168,23.7890711 C57.2367168,23.7890711 57.75,23.2749791 57.75,22.5037657 L57.75,21.8610377 C57.75,21.0898243 57.2367168,20.5757322 56.4667168,20.5757322 C55.6967168,20.5757322 55.1834336,21.0898243 55.1834336,21.8610377 L55.1834336,22.5037657 C55.1832832,23.2749791 55.6967168,23.7890711 56.4667168,23.7890711 Z" id="Path"></path>
            <path d="M55.1832832,28.4163515 C55.1832832,29.1875649 55.6965664,29.7016569 56.4665664,29.7016569 C57.2365664,29.7016569 57.75,29.0590795 57.75,28.4163515 L57.75,27.00241 C57.75,26.2311967 57.2367168,25.7171046 56.4667168,25.7171046 C55.6967168,25.7171046 55.1834336,26.2311967 55.1834336,27.00241 L55.1834336,28.4163515 L55.1832832,28.4163515 Z" id="Path"></path>
            <path d="M55.1832832,33.4292385 C55.1832832,34.2004519 55.6965664,34.7145439 56.4665664,34.7145439 C57.2365664,34.7145439 57.7498496,34.2004519 57.7498496,33.4292385 L57.7498496,32.7865105 C57.7498496,32.0152971 57.2365664,31.501205 56.4665664,31.501205 C55.6965664,31.501205 55.1832832,32.0152971 55.1832832,32.7865105 L55.1832832,33.4292385 Z" id="Path"></path>
        </g>
    </g>
</svg>