<?xml version="1.0" encoding="UTF-8"?>
<svg width="100px" height="100px" viewBox="0 0 100 100" version="1.1" xmlns="http://www.w3.org/2000/svg" xmlns:xlink="http://www.w3.org/1999/xlink">
    <!-- Generator: Sketch 52.2 (67145) - http://www.bohemiancoding.com/sketch -->
    <title>Icons/100_safebox</title>
    <desc>Created with Sketch.</desc>
    <g id="Icons/100_safebox" stroke="none" stroke-width="1" fill="none" fill-rule="evenodd">
        <g id="Group-13" transform="translate(13.000000, 18.000000)" fill="#4A4A4A">
            <path d="M0,-0.00025 L0,60.001 L2.5,60.001 L2.5,64.99975 L15,64.99975 L15,60.001 L60,60.001 L60,64.99975 L72.5,64.99975 L72.5,60.001 L75,60.001 L75,-0.00025 L0,-0.00025 Z M2.5,2.49975 L72.5,2.49975 L72.5,57.49975 L60,57.49975 L15,57.49975 L2.5,57.49975 L2.5,2.49975 Z M62.5,62.501 L69.99875,62.501 L69.99875,60.001 L62.5,60.001 L62.5,62.501 Z M5,62.501 L12.5,62.501 L12.5,60.001 L5,60.001 L5,62.501 Z" id="Fill-1"></path>
            <g id="Group-12" transform="translate(5.000000, 5.000000)">
                <path d="M2.50975,2.5 L62.49975,2.51 L62.49975,6.25 L61.24975,6.25 C60.5585,6.25 59.99975,6.80875 59.99975,7.5 C59.99975,8.19125 60.5585,8.75 61.24975,8.75 L62.4985,8.75 L62.4985,10 L61.24975,10 C60.5585,10 59.99975,10.55875 59.99975,11.25 C59.99975,11.94125 60.5585,12.5 61.24975,12.5 L62.4985,12.5 L62.49475,37.5 L61.24975,37.5 C60.5585,37.5 59.99975,38.05875 59.99975,38.75 C59.99975,39.44125 60.5585,40 61.24975,40 L62.49475,40 L62.49475,41.25 L61.24975,41.25 C60.5585,41.25 59.99975,41.80875 59.99975,42.5 C59.99975,43.19125 60.5585,43.75 61.24975,43.75 L62.49475,43.75 L62.49475,47.5 L62.491,47.5 L2.49975,47.49 L2.50975,2.5 Z M2.50975,50 L62.48975,50 C63.87475,50 64.99975,48.875 64.99975,47.49 L64.99975,43.75 C65.691,43.75 66.24975,43.19125 66.24975,42.5 C66.24975,41.80875 65.691,41.25 64.99975,41.25 L64.99975,40 C65.691,40 66.24975,39.44125 66.24975,38.75 C66.24975,38.05875 65.691,37.5 64.99975,37.5 L64.99975,12.5 C65.691,12.5 66.24975,11.94125 66.24975,11.25 C66.24975,10.55875 65.691,10 64.99975,10 L64.99975,8.75 C65.691,8.75 66.24975,8.19125 66.24975,7.5 C66.24975,6.80875 65.691,6.25 64.99975,6.25 L64.99975,2.51 C64.99975,1.125 63.87475,0 62.48975,0 L2.50975,0 C1.12475,0 -0.00025,1.125 -0.00025,2.51 L-0.00025,47.49 C-0.00025,48.875 1.12475,50 2.50975,50 Z" id="Fill-2"></path>
                <path d="M52.5,26.25 L53.68625,26.25 C53.43625,28.76 52.43875,31.0525 50.9225,32.905 L50.08875,32.07125 C49.6,31.5825 48.81,31.5825 48.32125,32.07125 C47.8325,32.56 47.8325,33.35 48.32125,33.83875 L49.155,34.6725 C47.3025,36.18875 45.01,37.18625 42.5,37.43625 L42.5,36.25 C42.5,35.55875 41.94125,35 41.25,35 C40.55875,35 40,35.55875 40,36.25 L40,37.43625 C37.49,37.18625 35.1975,36.18875 33.345,34.6725 L34.17875,33.83875 C34.6675,33.35 34.6675,32.56 34.17875,32.07125 C33.69,31.5825 32.9,31.5825 32.41125,32.07125 L31.5775,32.905 C30.06125,31.0525 29.06375,28.76 28.81375,26.25 L30,26.25 C30.69125,26.25 31.25,25.69125 31.25,25 C31.25,24.30875 30.69125,23.75 30,23.75 L28.81375,23.75 C29.06375,21.24 30.06125,18.9475 31.5775,17.095 L32.41125,17.92875 C32.655,18.1725 32.975,18.295 33.295,18.295 C33.615,18.295 33.935,18.1725 34.17875,17.92875 C34.6675,17.44 34.6675,16.65 34.17875,16.16125 L33.345,15.3275 C35.1975,13.81125 37.49,12.81375 40,12.56375 L40,13.75 C40,14.44125 40.55875,15 41.25,15 C41.94125,15 42.5,14.44125 42.5,13.75 L42.5,12.56375 C45.01,12.81375 47.3025,13.81125 49.155,15.3275 L48.32125,16.16125 C47.8325,16.65 47.8325,17.44 48.32125,17.92875 C48.565,18.1725 48.885,18.295 49.205,18.295 C49.525,18.295 49.845,18.1725 50.08875,17.92875 L50.9225,17.095 C52.43875,18.9475 53.43625,21.24 53.68625,23.75 L52.5,23.75 C51.80875,23.75 51.25,24.30875 51.25,25 C51.25,25.69125 51.80875,26.25 52.5,26.25 M51.8825,14.43125 C51.87125,14.42 51.86875,14.405 51.8575,14.3925 C51.84625,14.38 51.83125,14.3775 51.82,14.3675 C49.105,11.67 45.37,10 41.25,10 C37.13,10 33.395,11.67 30.68125,14.3675 C30.67,14.37875 30.655,14.38125 30.64375,14.3925 C30.6325,14.40375 30.62875,14.41875 30.61875,14.43125 C27.92,17.145 26.25,20.88 26.25,25 C26.25,29.12 27.92,32.855 30.6175,35.56875 C30.62875,35.58 30.63125,35.595 30.6425,35.6075 C30.65375,35.62 30.66875,35.6225 30.68,35.6325 C33.395,38.33 37.13,40 41.25,40 C45.37,40 49.105,38.33 51.81875,35.6325 C51.83,35.62125 51.845,35.61875 51.85625,35.6075 C51.8675,35.59625 51.87125,35.58125 51.88125,35.56875 C54.58,32.855 56.25,29.12 56.25,25 C56.25,20.88 54.58,17.145 51.8825,14.43125" id="Fill-4"></path>
                <path d="M41.25,27.5 C39.87125,27.5 38.75,26.37875 38.75,25 C38.75,23.62125 39.87125,22.5 41.25,22.5 C42.62875,22.5 43.75,23.62125 43.75,25 C43.75,26.37875 42.62875,27.5 41.25,27.5 M41.25,20 C38.4925,20 36.25,22.2425 36.25,25 C36.25,27.7575 38.4925,30 41.25,30 C44.0075,30 46.25,27.7575 46.25,25 C46.25,22.2425 44.0075,20 41.25,20" id="Fill-6"></path>
                <path d="M15,12.5 C14.30875,12.5 13.75,13.05875 13.75,13.75 L13.75,15 C13.05875,15 12.5,15.55875 12.5,16.25 C12.5,16.94125 13.05875,17.5 13.75,17.5 L13.75,35 C13.05875,35 12.5,35.55875 12.5,36.25 C12.5,36.94125 13.05875,37.5 13.75,37.5 L13.75,38.75 C13.75,39.44125 14.30875,40 15,40 C15.69125,40 16.25,39.44125 16.25,38.75 L16.25,13.75 C16.25,13.05875 15.69125,12.5 15,12.5" id="Fill-8"></path>
                <path d="M11.25,16.25 C11.25,15.55875 10.69125,15 10,15 L10,13.75 C10,13.05875 9.44125,12.5 8.75,12.5 C8.05875,12.5 7.5,13.05875 7.5,13.75 L7.5,38.75 C7.5,39.44125 8.05875,40 8.75,40 C9.44125,40 10,39.44125 10,38.75 L10,37.5 C10.69125,37.5 11.25,36.94125 11.25,36.25 C11.25,35.55875 10.69125,35 10,35 L10,17.5 C10.69125,17.5 11.25,16.94125 11.25,16.25" id="Fill-10"></path>
            </g>
        </g>
    </g>
</svg>