<?xml version="1.0" encoding="UTF-8"?>
<svg width="100px" height="100px" viewBox="0 0 100 100" version="1.1" xmlns="http://www.w3.org/2000/svg" xmlns:xlink="http://www.w3.org/1999/xlink">
    <!-- Generator: Sketch 52.2 (67145) - http://www.bohemiancoding.com/sketch -->
    <title>Icons/100_bed</title>
    <desc>Created with Sketch.</desc>
    <g id="Icons/100_bed" stroke="none" stroke-width="1" fill="none" fill-rule="evenodd">
        <g id="bed-1" transform="translate(12.000000, 17.000000)" fill="#FFF" fill-rule="nonzero">
            <path d="M72.1436032,31.7056164 L71.8946429,31.7056164 L66.1949444,2.99546575 C65.815246,1.35134247 64.2964524,0.0864931507 62.5244762,0.0864931507 L13.4162619,0.0864931507 C11.6442857,0.0864931507 10.1254921,1.35119178 9.74579365,3.12189041 L4.04805556,31.7056164 L3.79698413,31.7056164 C1.64530952,31.7056164 0,33.3497397 0,35.499863 L0,49.4123014 L0,51.9418493 L0,58.2656438 L0,60.7951918 L0,62.0598904 C0,64.2100137 1.64530952,65.854137 3.79698413,65.854137 L12.4035317,65.854137 C13.7958095,65.854137 15.0614206,65.0952877 15.6943016,63.7040137 L17.1836905,60.7950411 L58.6979365,60.7950411 L60.119619,63.7040137 C60.7525,65.0952877 62.1447778,65.854137 63.5369048,65.854137 L72.1434524,65.854137 C74.295127,65.854137 75.9404365,64.2100137 75.9404365,62.0598904 L75.9404365,60.7951918 L75.9404365,58.2656438 L75.9404365,51.9418493 L75.9404365,49.4123014 L75.9404365,35.499863 C75.9407381,33.3497397 74.2952778,31.7056164 72.1436032,31.7056164 Z M12.1505,3.62773973 C12.2770159,2.99531507 12.783381,2.61589041 13.4161111,2.61589041 L62.5244762,2.61589041 C63.1573571,2.61589041 63.6635714,3.12173973 63.7900873,3.62773973 L69.3590476,31.7054658 L67.0045556,31.7054658 C66.2362619,25.3372192 59.7337381,20.3225753 51.892619,20.3225753 C45.6865556,20.3225753 40.3198095,23.4643562 37.9701429,27.9320137 C35.6204762,23.4645068 30.2537302,20.3225753 24.0476667,20.3225753 C16.2065476,20.3225753 9.70402381,25.3372192 8.93573016,31.7054658 L6.58153968,31.7054658 L12.1505,3.62773973 Z M64.4229683,31.7056164 L39.3625714,31.7056164 C40.1219683,26.7730959 45.4378968,22.852274 51.8927698,22.852274 C58.3476429,22.852274 63.6635714,26.7729452 64.4229683,31.7056164 Z M36.5780159,31.7056164 L11.517619,31.7056164 C12.2770159,26.7730959 17.5929444,22.852274 24.0478175,22.852274 C30.5028413,22.852274 35.818619,26.7729452 36.5780159,31.7056164 Z M13.5427778,62.5658904 C13.2895952,63.0717397 12.9098968,63.3247397 12.4036825,63.3247397 L3.79698413,63.3247397 C3.0375873,63.3247397 2.53137302,62.8188904 2.53137302,62.0600411 L2.53137302,60.7953425 L14.4286905,60.7953425 L13.5427778,62.5658904 Z M73.4093651,62.0598904 C73.4093651,62.8187397 72.9031508,63.324589 72.143754,63.324589 L63.5372063,63.324589 C63.0309921,63.324589 62.6512937,62.9451644 62.3981111,62.5657397 L61.5121984,60.7950411 L73.4095159,60.7950411 L73.4095159,62.0598904 L73.4093651,62.0598904 Z M73.4093651,58.2656438 L57.4617302,58.2656438 L18.4788571,58.2656438 L2.53137302,58.2656438 L2.53137302,51.9418493 L73.4093651,51.9418493 L73.4093651,58.2656438 Z M2.53137302,49.4123014 L2.53137302,45.6180548 L6.32835714,45.6180548 C7.08775397,45.6180548 7.59396825,45.1122055 7.59396825,44.3533562 C7.59396825,43.5945068 7.08775397,43.0886575 6.32835714,43.0886575 L2.53137302,43.0886575 L2.53137302,40.5591096 L6.32835714,40.5591096 C7.08775397,40.5591096 7.59396825,40.0532603 7.59396825,39.294411 C7.59396825,38.5355616 7.08775397,38.0297123 6.32835714,38.0297123 L2.53137302,38.0297123 L2.53137302,35.499863 C2.53137302,34.7410137 3.0375873,34.2351644 3.79698413,34.2351644 L8.85973016,34.2351644 L36.7046825,34.2351644 L39.2360556,34.2351644 L67.0810079,34.2351644 L72.143754,34.2351644 C72.9031508,34.2351644 73.4093651,34.7410137 73.4093651,35.499863 L73.4093651,38.029411 L68.346619,38.029411 C67.5872222,38.029411 67.0810079,38.5352603 67.0810079,39.2941096 C67.0810079,40.0529589 67.5872222,40.5588082 68.346619,40.5588082 L73.4093651,40.5588082 L73.4093651,43.0883562 L68.346619,43.0883562 C67.5872222,43.0883562 67.0810079,43.5942055 67.0810079,44.3530548 C67.0810079,45.1119041 67.5872222,45.6177534 68.346619,45.6177534 L73.4093651,45.6177534 L73.4093651,49.412 L2.53137302,49.412 L2.53137302,49.4123014 Z" id="Shape"></path>
        </g>
    </g>
</svg>
