<?xml version="1.0" encoding="UTF-8"?>
<svg width="100px" height="100px" viewBox="0 0 100 100" version="1.1" xmlns="http://www.w3.org/2000/svg" xmlns:xlink="http://www.w3.org/1999/xlink">
    <!-- Generator: Sketch 52.2 (67145) - http://www.bohemiancoding.com/sketch -->
    <title>Icons/100_garden Copy</title>
    <desc>Created with Sketch.</desc>
    <g id="Icons/100_garden-Copy" stroke="none" stroke-width="1" fill="none" fill-rule="evenodd">
        <g id="Group-8" transform="translate(12.000000, 17.000000)" fill="#4A4A4A">
            <path d="M76.5575277,38.42256 C76.5551261,38.37651 76.5507733,38.33061 76.544169,38.28471 L72.6922177,11.49951 C72.6267752,11.04366 72.3552489,10.64316 71.9562899,10.41321 C71.5573308,10.18326 71.0744673,10.14906 70.6463893,10.32096 L52.9195784,17.44326 C52.1503288,17.75226 51.7774867,18.62586 52.0865374,19.39446 C52.3958883,20.16336 53.2705062,20.53596 54.0394556,20.22696 L69.9922645,13.81731 L73.5467226,38.53356 C73.5486739,38.60331 73.5555784,38.67321 73.5674361,38.74311 C74.3446407,43.31526 73.4937382,48.04686 71.1718805,52.06596 C68.4980442,56.69436 64.1753873,60.00216 59.0001768,61.38036 C53.8236154,62.75871 48.4139526,62.04171 43.7672353,59.36091 C43.7351144,59.34231 43.702093,59.32656 43.6693717,59.31081 C44.6654185,58.55421 45.6026271,57.73506 46.4764945,56.85861 L64.0496057,52.15296 C64.8505257,51.93861 65.3257343,51.11601 65.1110949,50.31561 C64.8967558,49.51536 64.0728708,49.04031 63.2727012,49.25496 L49.7510209,52.87566 C51.2369858,50.66676 52.3991904,48.23076 53.1935062,45.62451 L65.2571398,42.39426 C66.0580598,42.17991 66.5332684,41.35701 66.318629,40.55691 C66.1041398,39.75666 65.2804049,39.28161 64.4802353,39.49596 L55.6037713,41.87301 L58.9417889,36.09501 L65.9954692,34.20636 C66.7963893,33.99201 67.2715979,33.16926 67.0569585,32.36901 C66.8423191,31.56876 66.0187343,31.09371 65.2185647,31.30821 L61.0646173,32.42061 L64.2588415,26.89161 C64.6732606,26.17416 64.427401,25.25676 63.7093347,24.84261 C62.9912684,24.42831 62.0732723,24.67416 61.6588532,25.39146 L58.4647791,30.92016 L57.3516563,26.76906 C57.137017,25.96881 56.3137324,25.49376 55.5132626,25.70826 C54.7123425,25.92261 54.2371339,26.74521 54.4519234,27.54561 L56.3418006,34.59471 L54.3888825,37.97556 C54.4463698,33.17361 53.2169214,28.42821 50.7527713,24.16311 C47.6498064,18.79206 42.7528766,14.62101 36.9579136,12.41121 C36.9484575,12.40701 36.9387012,12.40311 36.9290949,12.39906 L30.1368844,9.64416 C29.3680852,9.33246 28.4933172,9.70251 28.1815647,10.46991 C27.8698123,11.23791 28.2398025,12.11271 29.0080014,12.42426 L35.7383717,15.15381 C35.7688415,15.16791 35.7999117,15.18081 35.8314322,15.19281 C41.0081437,17.15196 45.3842353,20.87016 48.152783,25.66296 C51.3756758,31.24161 52.225978,37.74441 50.5465374,43.97361 C48.9975316,49.71951 45.4661885,54.59646 40.5339858,57.85521 L38.0147499,53.49456 L43.4764965,33.12531 C43.6909858,32.32491 43.2157772,31.50246 42.4148571,31.28796 C41.6134867,31.07346 40.7911027,31.54836 40.5764634,32.34876 L35.8920715,49.82031 L30.3345628,40.20066 L34.1236232,26.06946 C34.3382626,25.26921 33.863054,24.44676 33.0621339,24.23211 C32.2610637,24.01776 31.4383795,24.49281 31.2237402,25.29306 L28.2118844,36.52611 L23.8309897,28.94331 L26.1129214,20.43306 C26.3275608,19.63251 25.8523522,18.81006 25.0514322,18.59571 C24.2502119,18.38136 23.4276778,18.85626 23.2130384,19.65651 L21.7080111,25.26876 L17.5578162,18.08496 C17.1433971,17.36751 16.2252509,17.12151 15.5073347,17.53596 C14.7892684,17.95011 14.5432587,18.86766 14.957978,19.58511 L19.1081729,26.76876 L13.4924263,25.26501 C12.6913561,25.05051 11.8686719,25.52556 11.6540326,26.32566 C11.4393932,27.12606 11.9146018,27.94866 12.7155218,28.16316 L21.2311515,30.44361 L25.6120462,38.02641 L14.3718474,35.01681 C13.5707772,34.80216 12.748093,35.27721 12.5334536,36.07746 C12.3188142,36.87786 12.7940228,37.70046 13.5949429,37.91481 L27.7350248,41.70126 L33.2925335,51.32091 L15.8099312,46.63956 C15.0087109,46.42521 14.1861768,46.90026 13.9715374,47.70051 C13.7568981,48.50076 14.2321066,49.32336 15.0330267,49.53786 L35.4155121,54.99561 L37.9344478,59.35581 C26.5909819,65.00571 12.6308669,60.93651 6.22815926,49.85406 C3.42944191,45.00966 2.40397602,39.30666 3.34073431,33.79536 C3.35349259,33.72096 3.36024698,33.64671 3.36144776,33.57291 L7.64778109,3.76116 L17.5918883,7.79451 C18.3608376,8.10621 19.2354556,7.73631 19.547208,6.96861 C19.8589604,6.20076 19.4889702,5.32581 18.7207713,5.01441 L6.99936004,0.26001 C6.57173236,0.08676 6.08751793,0.11946 5.68735809,0.34911 C5.28704815,0.57876 5.01477135,0.97986 4.94902865,1.43676 L0.361449708,33.33786 C0.354094932,33.38826 0.349592008,33.43896 0.347490643,33.48921 C-0.648856335,39.62676 0.513198246,45.96291 3.62757057,51.35361 C8.64277719,60.03486 17.780861,64.89051 27.1745608,64.89021 C31.3234049,64.89021 35.5213308,63.93936 39.4366232,61.95636 L41.2814712,65.14956 C41.5594517,65.63076 42.0639292,65.89986 42.5828162,65.89986 C42.8375316,65.89986 43.0955491,65.83506 43.3321027,65.69871 C44.0500189,65.28456 44.2960287,64.36701 43.8813094,63.64956 L43.1973152,62.46531 C46.514169,64.18626 50.1319682,65.06661 53.7929955,65.06661 C55.7877908,65.06661 57.7954945,64.80606 59.7734789,64.27941 C65.7246934,62.69436 70.6963717,58.88946 73.7720189,53.56596 C76.4120832,48.99621 77.3986739,43.62576 76.5575277,38.42256" id="Fill-1"></path>
            <path d="M24.804822,7.60905 C24.5257908,7.33005 24.1385394,7.16955 23.7436329,7.16955 C23.3487265,7.16955 22.961475,7.33005 22.6822938,7.60905 C22.4031125,7.88955 22.2425082,8.27505 22.2425082,8.6697 C22.2425082,9.0657 22.4029624,9.45135 22.6822938,9.73185 C22.961475,10.011 23.3487265,10.17135 23.7436329,10.17135 C24.1383893,10.17135 24.5257908,10.01085 24.804822,9.73185 C25.0855043,9.45135 25.2447577,9.0642 25.2447577,8.6697 C25.2447577,8.2752 25.0855043,7.88955 24.804822,7.60905" id="Fill-4"></path>
            <path d="M66.6258786,20.77998 L66.6168727,20.76768 C66.1296563,20.09733 65.1907967,19.94853 64.5203113,20.43543 C63.8493756,20.92218 63.7003288,21.86043 64.1875452,22.53063 L64.1965511,22.54278 C64.4902918,22.94688 64.9482392,23.16153 65.4124906,23.16153 C65.7182392,23.16153 66.0269897,23.06838 66.2934127,22.87518 C66.9640481,22.38843 67.1129448,21.45033 66.6258786,20.77998" id="Fill-6"></path>
        </g>
    </g>
</svg>