<?xml version="1.0" encoding="UTF-8"?>
<svg width="100px" height="100px" viewBox="0 0 100 100" version="1.1" xmlns="http://www.w3.org/2000/svg" xmlns:xlink="http://www.w3.org/1999/xlink">
    <!-- Generator: Sketch 52.2 (67145) - http://www.bohemiancoding.com/sketch -->
    <title>Icons/100_staff</title>
    <desc>Created with Sketch.</desc>
    <g id="Icons/100_staff" stroke="none" stroke-width="1" fill="none" fill-rule="evenodd">
        <g id="Group-8" transform="translate(17.000000, 14.000000)" fill="#FFF">
            <path d="M44.1698619,27.599835 L40.5885702,27.599835 L40.5885702,21.599835 C42.5664878,21.599835 44.1698619,23.211585 44.1698619,25.199835 L44.1698619,27.599835 Z M44.1698619,45.599835 L42.8065835,45.599835 L40.5885702,31.107435 L40.5885702,29.999835 L44.1698619,29.999835 L44.1698619,45.599835 Z M26.4126236,50.399835 L26.7373274,47.618235 C27.2278151,47.865285 27.7681425,47.995935 28.3166771,47.999835 L38.5352962,47.999835 C39.0844276,47.996235 39.6253519,47.865285 40.1158396,47.617035 L40.4393497,50.399835 L26.4126236,50.399835 Z M34.6197506,64.799835 L38.2010423,64.799835 L38.2010423,52.799835 L34.6197506,52.799835 L34.6197506,64.799835 Z M34.6197506,69.599835 L34.6197506,67.199835 L38.6570601,67.199835 L39.8508241,69.599835 L34.6197506,69.599835 Z M28.650931,64.799835 L32.2322227,64.799835 L32.2322227,52.799835 L28.650931,52.799835 L28.650931,64.799835 Z M32.2322227,69.599835 L27.0011492,69.599835 L28.1949131,67.199835 L32.2322227,67.199835 L32.2322227,69.599835 Z M26.2634031,25.199835 C25.8696102,25.199835 25.5010356,25.395135 25.2785479,25.721835 L24.3844187,27.033435 L23.1834922,26.027835 L21.9336214,24.980235 L23.7564989,22.559835 C24.208637,21.956985 24.9154944,21.601785 25.6665212,21.599835 L26.2634031,21.599835 L26.2634031,25.199835 Z M20.0379243,33.097035 C19.8137951,33.412635 19.4519354,33.599835 19.0662004,33.599835 L8.35694432,33.599835 L8.35694432,31.199835 L16.7132918,31.199835 C17.089029,31.199835 17.4428307,31.021935 17.6683029,30.719835 L20.4963296,26.905035 L23.0032339,29.003835 L20.0379243,33.097035 Z M14.6588241,64.799835 L16.2513051,69.599835 L13.132,69.599835 L13.132,67.199835 L10.7444722,67.199835 L10.7444722,69.599835 L8.35694432,69.599835 L8.35694432,67.199835 L5.96941648,67.199835 L5.96941648,69.599835 L2.85011136,69.599835 L4.44259243,64.799835 L14.6588241,64.799835 Z M27.1312695,44.259285 L27.3903163,42.039435 L28.5184232,32.399835 L38.3335501,32.399835 L39.7207038,44.259285 C39.7978508,44.917635 39.3295969,45.514035 38.6748174,45.591585 C38.628559,45.596985 38.5820022,45.599835 38.5352962,45.599835 L28.3166771,45.599835 C27.6574209,45.599685 27.1229131,45.062385 27.1230624,44.399685 C27.1230624,44.352885 27.1257483,44.306085 27.1312695,44.259285 Z M28.650931,27.599835 L38.2010423,27.599835 L38.2010423,29.999835 L28.6437684,29.999835 L28.650931,27.599835 Z M28.650931,21.599835 L29.1690245,21.599835 L31.3177996,25.199835 L28.650931,25.199835 L28.650931,21.599835 Z M34.8990913,21.599835 L33.4259866,24.067035 L31.952882,21.599835 L34.8990913,21.599835 Z M37.6829488,21.599835 L38.2010423,21.599835 L38.2010423,25.199835 L35.5341737,25.199835 L37.6829488,21.599835 Z M46.5573898,25.199835 C46.55351,21.887835 43.8833586,19.203735 40.5885702,19.199835 L25.6665212,19.199835 C24.1641693,19.202235 22.7498575,19.913085 21.8464766,21.119835 L19.3395724,24.448635 L16.1164098,28.799835 L10.7444722,28.799835 L10.7444722,19.199835 L8.35694432,19.199835 L8.35694432,28.799835 L7.1631804,28.799835 C6.50392428,28.799835 5.96941648,29.337135 5.96941648,29.999835 L5.96941648,34.799835 C5.96941648,35.462535 6.50392428,35.999835 7.1631804,35.999835 L8.35694432,35.999835 L8.35694432,62.399835 L0.00059688196,62.399835 L0.00059688196,64.799835 L1.92494432,64.799835 L0.0614788419,70.420635 C-0.146832962,71.049435 0.191300668,71.728935 0.816832962,71.938335 C0.938596882,71.979135 1.06603118,71.999835 1.1943608,71.999835 L17.9070557,71.999835 C18.5663118,71.999985 19.1009688,71.462835 19.101118,70.800135 C19.101118,70.671135 19.0805256,70.543035 19.0399376,70.420635 L17.1764722,64.799835 L19.1008196,64.799835 L19.1008196,62.399835 L10.7444722,62.399835 L10.7444722,35.999835 L19.0662004,35.999835 C20.2186303,35.999385 21.3003296,35.441685 21.9730156,34.501035 L25.5925078,29.506635 L25.6008641,29.489835 L25.6139955,29.477835 L26.2634031,28.517835 L26.2634031,31.123035 L25.5113318,37.559835 L24.7592606,43.981035 L23.7266548,52.799835 L26.2634031,52.799835 L26.2634031,65.716635 L24.0012205,70.263435 C23.70651,70.856235 23.9457105,71.576985 24.5354298,71.873235 C24.701363,71.956485 24.8841581,71.999835 25.0696392,71.999835 L41.7823341,71.999835 C42.4415902,72.003435 42.9792316,71.469135 42.9826637,70.806435 C42.9837082,70.618035 42.9405835,70.432035 42.8567216,70.263435 L40.5885702,65.716635 L40.5885702,52.799835 L43.1253185,52.799835 L42.5630557,47.999835 L46.5573898,47.999835 L46.5573898,25.199835 Z" id="Fill-1"></path>
            <path d="M39.3948062,7.199835 C39.3494432,7.199835 39.3004989,7.189035 39.2539421,7.186635 C38.9799733,5.869935 38.2699822,4.685535 37.2402116,3.826635 C37.6172918,2.966985 38.4602383,2.408985 39.3948062,2.399835 C40.7134677,2.399835 41.7823341,3.474285 41.7823341,4.799835 C41.7823341,6.125385 40.7133185,7.199835 39.3948062,7.199835 Z M33.7841158,14.383035 C32.7741915,14.488635 31.7675501,14.153985 31.0193586,13.463835 C30.4112851,12.906435 30.0118218,12.156285 29.8876704,11.338635 L29.9533274,11.319435 C30.4535145,11.192235 30.9728018,11.043435 31.5052205,10.874235 C31.6377283,10.832235 31.7678486,10.785435 31.9003563,10.741035 C32.3384677,10.593435 32.7765791,10.430235 33.2134967,10.250235 C33.3471982,10.196235 33.479706,10.145835 33.6134076,10.088235 C34.1565702,9.848235 34.6877951,9.596235 35.2154388,9.308235 C35.3133274,9.254235 35.4040535,9.188235 35.5007483,9.136635 C35.9334878,8.886285 36.3526481,8.613135 36.756588,8.318235 C36.8341826,8.260635 36.9225212,8.217435 36.9953408,8.158635 C36.9953408,8.239035 37.0036971,8.319435 37.0036971,8.398635 L37.0072784,10.593435 C37.0480156,12.496785 35.6608619,14.127735 33.7841158,14.383035 Z M29.8446949,8.399835 C29.8446949,6.411585 31.448069,4.799835 33.4259866,4.799835 C34.3875635,4.797135 35.3079555,5.191935 35.9710913,5.891835 C35.9436347,5.914635 35.9197595,5.942235 35.8911091,5.966235 C35.4898552,6.300135 35.0650245,6.604185 34.6197506,6.875835 C34.5170869,6.939435 34.4084543,6.995835 34.3034031,7.055835 C33.9333363,7.269435 33.5549131,7.466235 33.1717149,7.646235 C33.0404009,7.707435 32.9114744,7.766235 32.7801604,7.827435 C32.3086236,8.033835 31.8335056,8.225835 31.3715189,8.387835 C31.3464499,8.397435 31.3225746,8.403435 31.2975056,8.411835 C30.8426815,8.570235 30.4045702,8.703435 29.9843653,8.821035 L29.8446949,8.860635 L29.8446949,8.399835 Z M39.4606125,0.000135 C37.6335568,-0.012465 35.9596013,1.024035 35.148588,2.669835 C34.590951,2.494185 34.0103341,2.403135 33.4259866,2.399835 C30.1311982,2.403735 27.4610468,5.087835 27.457167,8.399835 L27.457167,10.799835 C27.457167,14.113485 30.1295568,16.799835 33.4259866,16.799835 L33.439118,16.799835 C33.6289265,16.799835 33.818735,16.790235 34.0085434,16.772235 C37.1077038,16.392735 39.4274855,13.731585 39.3948062,10.593435 L39.3948062,9.599835 C42.03198,9.618135 44.1844855,7.483935 44.2026904,4.832985 C44.2207461,2.182185 42.097637,0.018435 39.4606125,0.000135 Z" id="Fill-4"></path>
            <path d="M50.1386815,55.199835 C50.1425612,51.224985 53.3470713,48.003735 57.301265,47.999835 C61.2554588,48.003735 64.4599688,51.224985 64.4638486,55.199835 L50.1386815,55.199835 Z M62.2589666,69.599835 L52.3435635,69.599835 L50.3547528,57.599835 L64.2477773,57.599835 L62.2589666,69.599835 Z M57.301265,45.599835 C52.0269176,45.599835 47.7511537,49.897935 47.7511537,55.199835 L47.7511537,56.399835 C47.7565256,56.434935 47.7636882,56.469885 47.7727906,56.504235 C47.7708508,56.535435 47.7708508,56.566635 47.7727906,56.597835 L50.1603185,70.997835 C50.256118,71.574135 50.7510824,71.997285 51.3324454,71.999835 L63.2700846,71.999835 C63.8532383,71.999685 64.3508886,71.575935 64.4471359,70.997835 L66.8346637,56.597835 C66.8364543,56.566635 66.8364543,56.535435 66.8346637,56.504235 C66.8421247,56.469735 66.8476459,56.434935 66.8513764,56.399835 L66.8513764,55.199835 C66.8513764,49.897935 62.5756125,45.599835 57.301265,45.599835 Z" id="Fill-6"></path>
        </g>
    </g>
</svg>
