<?xml version="1.0" encoding="UTF-8"?>
<svg width="100px" height="100px" viewBox="0 0 100 100" version="1.1" xmlns="http://www.w3.org/2000/svg" xmlns:xlink="http://www.w3.org/1999/xlink">
    <!-- Generator: Sketch 52.2 (67145) - http://www.bohemiancoding.com/sketch -->
    <title>Icons/100_swimming-pool</title>
    <desc>Created with Sketch.</desc>
    <g id="Icons/100_swimming-pool" stroke="none" stroke-width="1" fill="none" fill-rule="evenodd">
        <g id="swimming-pool" transform="translate(17.000000, 16.000000)" fill="#4A4A4A">
            <path d="M65.1830202,45.57945 L61.5695371,49.17945 C60.042991,50.6964 57.5722719,50.6964 56.0457258,49.17945 C53.5811798,46.7226 49.5840652,46.72155 47.118164,49.1769 C47.1172607,49.1778 47.1165079,49.17855 47.1156045,49.17945 C45.5699371,50.6493 43.1374607,50.6493 41.5917933,49.17945 C39.1272472,46.7226 35.1301326,46.72155 32.6642315,49.1769 C32.6633281,49.1778 32.6625753,49.17855 32.6616719,49.17945 C31.1160045,50.6493 28.6835281,50.6493 27.1378607,49.17945 C24.6733146,46.7226 20.6762,46.72155 18.2102989,49.1769 C18.2093955,49.1778 18.2086427,49.17855 18.2077393,49.17945 C16.6811933,50.6964 14.2104742,50.6964 12.6839281,49.17945 C10.219382,46.7226 6.22226742,46.72155 3.75636629,49.1769 C3.75546292,49.1778 3.75471011,49.17855 3.75380674,49.17945 L0.140323596,52.77945 L1.84347865,54.47625 L5.4569618,50.87625 C7.00262921,49.4064 9.43510562,49.4064 10.980773,50.87625 C13.4483303,53.32935 17.4433371,53.32935 19.9108944,50.87625 C21.4565618,49.4064 23.8890382,49.4064 25.4347056,50.87625 C27.9022629,53.32935 31.8972697,53.32935 34.364827,50.87625 C35.9104944,49.4064 38.3429708,49.4064 39.8886382,50.87625 C42.3561955,53.32935 46.3512022,53.32935 48.8187596,50.87625 C50.364427,49.4064 52.7969034,49.4064 54.3425708,50.87625 C56.8102787,53.32875 60.8049843,53.32875 63.2726921,50.87625 L66.8861753,47.27625 L65.1830202,45.57945 Z" id="Path"></path>
            <path d="M65.1830202,52.77945 L61.5695371,56.37945 C60.0426899,57.89565 57.572573,57.89565 56.0457258,56.37945 C53.5811798,53.9226 49.5840652,53.92155 47.118164,56.3769 C47.1172607,56.3778 47.1165079,56.37855 47.1156045,56.37945 C45.5699371,57.8493 43.1374607,57.8493 41.5917933,56.37945 C39.1272472,53.9226 35.1301326,53.92155 32.6642315,56.3769 C32.6633281,56.3778 32.6625753,56.37855 32.6616719,56.37945 C31.1160045,57.8493 28.6835281,57.8493 27.1378607,56.37945 C24.6733146,53.9226 20.6762,53.92155 18.2102989,56.3769 C18.2093955,56.3778 18.2086427,56.37855 18.2077393,56.37945 C16.6808921,57.89565 14.2107753,57.89565 12.6839281,56.37945 C10.219382,53.9226 6.22226742,53.92155 3.75636629,56.3769 C3.75546292,56.3778 3.75471011,56.37855 3.75380674,56.37945 L0.140323596,59.97945 L1.84347865,61.67625 L5.4569618,58.07625 C7.00262921,56.6064 9.43510562,56.6064 10.980773,58.07625 C13.4483303,60.52935 17.4433371,60.52935 19.9108944,58.07625 C21.4565618,56.6064 23.8890382,56.6064 25.4347056,58.07625 C27.9022629,60.52935 31.8972697,60.52935 34.364827,58.07625 C35.9104944,56.6064 38.3429708,56.6064 39.8886382,58.07625 C42.3561955,60.52935 46.3512022,60.52935 48.8187596,58.07625 C50.364427,56.6064 52.7969034,56.6064 54.3425708,58.07625 C56.8102787,60.52875 60.8049843,60.52875 63.2726921,58.07625 L66.8861753,54.47625 L65.1830202,52.77945 Z" id="Path"></path>
            <path d="M65.1830202,59.97945 L61.5695371,63.57945 C60.042991,65.0964 57.5722719,65.0964 56.0457258,63.57945 C53.5811798,61.1226 49.5840652,61.12155 47.118164,63.5769 C47.1172607,63.5778 47.1165079,63.57855 47.1156045,63.57945 C45.5699371,65.0493 43.1374607,65.0493 41.5917933,63.57945 C39.1272472,61.1226 35.1301326,61.12155 32.6642315,63.5769 C32.6633281,63.5778 32.6625753,63.57855 32.6616719,63.57945 C31.1160045,65.0493 28.6835281,65.0493 27.1378607,63.57945 C24.6733146,61.1226 20.6762,61.12155 18.2102989,63.5769 C18.2093955,63.5778 18.2086427,63.57855 18.2077393,63.57945 C16.6811933,65.0964 14.2104742,65.0964 12.6839281,63.57945 C10.219382,61.1226 6.22226742,61.12155 3.75636629,63.5769 C3.75546292,63.5778 3.75471011,63.57855 3.75380674,63.57945 L0.140323596,67.17945 L1.84347865,68.87625 L5.4569618,65.27625 C7.00262921,63.8064 9.43510562,63.8064 10.980773,65.27625 C13.4483303,67.72935 17.4433371,67.72935 19.9108944,65.27625 C21.4565618,63.8064 23.8890382,63.8064 25.4347056,65.27625 C27.9022629,67.72935 31.8972697,67.72935 34.364827,65.27625 C35.9104944,63.8064 38.3429708,63.8064 39.8886382,65.27625 C42.3561955,67.72935 46.3512022,67.72935 48.8187596,65.27625 C50.364427,63.8064 52.7969034,63.8064 54.3425708,65.27625 C56.8102787,67.72875 60.8049843,67.72875 63.2726921,65.27625 L66.8861753,61.67625 L65.1830202,59.97945 Z" id="Path"></path>
            <path d="M50.0232539,34.78065 L33.8107596,18.62865 C33.2566921,18.07665 33.2565416,17.1816 33.8107596,16.62945 C33.8107596,16.62945 33.8107596,16.62945 33.8107596,16.62945 L43.3997393,7.07745 C45.0306247,5.4477 45.0306247,2.8104 43.3997393,1.18065 C41.7426562,-0.3936 39.1367326,-0.3936 37.4796494,1.18065 L27.7316764,10.88985 C24.0013573,14.6127 24.0013573,20.6418 27.7316764,24.36465 L30.1683685,26.79225 L12.1852674,44.70945 L13.8884225,46.40625 L32.7243056,27.64065 C33.1945101,27.17205 33.1945101,26.41245 32.7243056,25.94385 L29.436036,22.66785 C26.6468787,19.88235 26.6468787,15.37335 29.436036,12.58785 L39.184009,2.87745 C39.8868315,2.2092 40.9925573,2.2092 41.6953798,2.87745 C42.387964,3.56925 42.387964,4.68885 41.6953798,5.38065 L32.1076045,14.93265 C30.612827,16.4211 30.6122247,18.83505 32.1064,20.32425 C32.1068517,20.3247 32.1073034,20.32515 32.1076045,20.32545 L48.3200989,36.47745 L59.1605483,47.27745 L60.8637034,45.58065 L50.0232539,34.78065 Z" id="Path"></path>
            <path d="M50.3761708,14.02785 C46.3847775,14.02785 43.1492045,17.25135 43.1492045,21.22785 C43.1531191,25.2027 46.3864337,28.42395 50.3761708,28.42785 C54.367564,28.42785 57.6031371,25.20435 57.6031371,21.22785 C57.6031371,17.2515 54.3674135,14.02785 50.3761708,14.02785 Z M50.3761708,26.02785 C47.7152921,26.02785 45.5581933,23.8788 45.5581933,21.22785 C45.5581933,18.5769 47.7152921,16.42785 50.3761708,16.42785 C53.0370494,16.42785 55.1941483,18.5769 55.1941483,21.22785 C55.1941483,23.8788 53.0370494,26.02785 50.3761708,26.02785 Z" id="Shape" fill-rule="nonzero"></path>
            <path d="M45.8075236,38.97945 C45.3371685,38.511 44.5747236,38.511 44.1043685,38.97945 L38.6841438,44.37945 L40.3872989,46.07625 L44.9559461,41.52465 L49.5245933,46.07625 L51.2277483,44.37945 L45.8075236,38.97945 Z" id="Path"></path>
        </g>
    </g>
</svg>