<?xml version="1.0" encoding="UTF-8"?>
<svg width="100px" height="100px" viewBox="0 0 100 100" version="1.1" xmlns="http://www.w3.org/2000/svg" xmlns:xlink="http://www.w3.org/1999/xlink">
    <!-- Generator: Sketch 52.2 (67145) - http://www.bohemiancoding.com/sketch -->
    <title>Icons/100_garden</title>
    <desc>Created with Sketch.</desc>
    <defs>
        <polygon id="path-1" points="4.50292398e-05 0.0860778443 76.8500526 0.0860778443 76.8500526 49.8502395 4.50292398e-05 49.8502395"></polygon>
        <polygon id="path-3" points="0 49.9139222 76.8500526 49.9139222 76.8500526 0.149700599 0 0.149700599"></polygon>
    </defs>
    <g id="Icons/100_garden" stroke="none" stroke-width="1" fill="none" fill-rule="evenodd">
        <g id="Group-11" transform="translate(12.000000, 25.000000)">
            <g id="Group-3" transform="translate(0.000000, 0.063623)">
                <mask id="mask-2" fill="white">
                    <use xlink:href="#path-1"></use>
                </mask>
                <g id="Clip-2"></g>
                <path d="M71.8763179,42.3294311 L70.5125324,42.3294311 C69.8479008,42.3294311 69.3090509,42.8668563 69.3090509,43.5297305 C69.3090509,44.1923054 69.8477507,44.7297305 70.5125324,44.7297305 L71.8763179,44.7297305 L71.8763179,47.4499401 L30.6437936,47.4499401 L30.6437936,44.7297305 L57.677548,44.7297305 C58.3421795,44.7297305 58.8810294,44.1924551 58.8810294,43.5297305 C58.8810294,42.867006 58.3423296,42.3294311 57.677548,42.3294311 L30.6437936,42.3294311 L30.6437936,20.4077246 L37.1415129,20.4077246 C37.8059943,20.4077246 38.3448442,19.8704491 38.3448442,19.2074251 C38.3448442,18.5445509 37.8061444,18.0072754 37.1415129,18.0072754 L31.9652517,18.0072754 L51.2598306,2.81491018 L70.5547097,18.0074251 L42.2749963,18.0074251 C41.6103647,18.0074251 41.0716649,18.5447006 41.0716649,19.2075749 C41.0716649,19.8705988 41.6102146,20.4077246 42.2749963,20.4077246 L71.8763179,20.4077246 L71.8763179,42.3294311 Z M28.2371308,37.2092216 L4.97367466,37.2092216 L4.97367466,20.4077246 L25.6742166,20.4077246 C25.6550041,20.6941018 25.7366571,20.9881138 25.928932,21.2312275 C26.3407994,21.7515868 27.0972906,21.8402096 27.6190294,21.4294311 L28.2371308,20.9426048 L28.2371308,37.2092216 Z M25.5097097,47.4499401 L28.2371308,47.4499401 L28.2371308,39.6092216 L25.5097097,39.6092216 L25.5097097,47.4499401 Z M20.375776,47.4499401 L23.1031971,47.4499401 L23.1031971,39.6092216 L20.375776,39.6092216 L20.375776,47.4499401 Z M15.2416922,47.4499401 L17.9691133,47.4499401 L17.9691133,39.6092216 L15.2416922,39.6092216 L15.2416922,47.4499401 Z M10.1076084,47.4499401 L12.8350294,47.4499401 L12.8350294,39.6092216 L10.1076084,39.6092216 L10.1076084,47.4499401 Z M4.97367466,47.4499401 L7.70109571,47.4499401 L7.70109571,39.6092216 L4.97367466,39.6092216 L4.97367466,47.4499401 Z M2.4065577,18.0074251 L2.4065577,10.1667066 L38.0392458,10.1667066 L28.0813296,18.0074251 L2.4065577,18.0074251 Z M75.6466162,47.4499401 L74.2828306,47.4499401 L74.2828306,20.9427545 L74.9007819,21.4295808 C75.1217253,21.6033832 75.3846961,21.6878144 75.6458657,21.6878144 C76.0012965,21.6878144 76.3537253,21.5312275 76.5911795,21.2312275 C77.0028969,20.711018 76.9140392,19.9563772 76.3924505,19.5455988 L52.0059651,0.344251497 C51.5687312,-5.98802395e-05 50.9518306,-5.98802395e-05 50.5147468,0.344251497 L41.0877253,7.76670659 L1.20337641,7.76670659 C0.538894932,7.76670659 4.50292398e-05,8.30383234 4.50292398e-05,8.96670659 L4.50292398e-05,19.2075749 C4.50292398e-05,19.8704491 0.538744834,20.4077246 1.20337641,20.4077246 L2.56716199,20.4077246 L2.56716199,47.4499401 L1.20337641,47.4499401 C0.538894932,47.4499401 4.50292398e-05,47.9872156 4.50292398e-05,48.6502395 C4.50292398e-05,49.3128144 0.538744834,49.8502395 1.20337641,49.8502395 L75.6467663,49.8502395 C76.3112478,49.8502395 76.8500977,49.3129641 76.8500977,48.6502395 C76.8499476,47.9872156 76.3112478,47.4499401 75.6466162,47.4499401 Z" id="Fill-1" fill="#4A4A4A" mask="url(#mask-2)"></path>
            </g>
            <path d="M65.3784335,42.3930539 L62.8116168,42.3930539 C62.1472854,42.3930539 61.6084355,42.930479 61.6084355,43.5933533 C61.6084355,44.2559281 62.1471353,44.7933533 62.8116168,44.7933533 L65.3784335,44.7933533 C66.042915,44.7933533 66.5817649,44.2560778 66.5817649,43.5933533 C66.5817649,42.9306287 66.042915,42.3930539 65.3784335,42.3930539" id="Fill-4" fill="#4A4A4A"></path>
            <mask id="mask-4" fill="white">
                <use xlink:href="#path-3"></use>
            </mask>
            <g id="Clip-7"></g>
            <path d="M35.7778324,28.311976 L41.0722203,28.311976 L41.0722203,25.5917665 L35.7778324,25.5917665 L35.7778324,28.311976 Z M35.7778324,35.9926647 L41.0722203,35.9926647 L41.0722203,30.7124251 L35.7778324,30.7124251 L35.7778324,35.9926647 Z M42.2754016,23.1914671 L34.5743509,23.1914671 C33.9098694,23.1914671 33.3710195,23.7287425 33.3710195,24.3916168 L33.3710195,37.1926647 C33.3710195,37.8553892 33.9097193,38.3928144 34.5743509,38.3928144 L42.2754016,38.3928144 C42.939883,38.3928144 43.4787329,37.8555389 43.4787329,37.1926647 L43.4787329,24.3916168 C43.4787329,23.7287425 42.9400331,23.1914671 42.2754016,23.1914671 Z" id="Fill-6" fill="#4A4A4A" mask="url(#mask-4)"></path>
            <path d="M48.6128168,28.311976 L53.9072047,28.311976 L53.9072047,25.5917665 L48.6128168,25.5917665 L48.6128168,28.311976 Z M48.6128168,35.9926647 L53.9072047,35.9926647 L53.9072047,30.7124251 L48.6128168,30.7124251 L48.6128168,35.9926647 Z M55.1105361,23.1914671 L47.4094854,23.1914671 C46.7450039,23.1914671 46.206154,23.7287425 46.206154,24.3916168 L46.206154,37.1926647 C46.206154,37.8553892 46.7448538,38.3928144 47.4094854,38.3928144 L55.1105361,38.3928144 C55.7750175,38.3928144 56.3138674,37.8555389 56.3138674,37.1926647 L56.3138674,24.3916168 C56.3138674,23.7287425 55.7750175,23.1914671 55.1105361,23.1914671 Z" id="Fill-8" fill="#4A4A4A" mask="url(#mask-4)"></path>
            <path d="M61.4479513,28.311976 L66.7423392,28.311976 L66.7423392,25.5917665 L61.4479513,25.5917665 L61.4479513,28.311976 Z M61.4479513,35.9926647 L66.7423392,35.9926647 L66.7423392,30.7124251 L61.4479513,30.7124251 L61.4479513,35.9926647 Z M67.9455205,23.1914671 L60.2446199,23.1914671 C59.5801384,23.1914671 59.0412885,23.7287425 59.0412885,24.3916168 L59.0412885,37.1926647 C59.0412885,37.8553892 59.5799883,38.3928144 60.2446199,38.3928144 L67.9456706,38.3928144 C68.610152,38.3928144 69.1490019,37.8555389 69.1490019,37.1926647 L69.1490019,24.3916168 C69.1488519,23.7287425 68.610152,23.1914671 67.9455205,23.1914671 Z" id="Fill-9" fill="#4A4A4A" mask="url(#mask-4)"></path>
            <path d="M49.8963002,12.9505988 L52.6237212,12.9505988 L52.6237212,10.2303892 L49.8963002,10.2303892 L49.8963002,12.9505988 Z M53.8270526,7.83008982 L48.6929688,7.83008982 C48.0284873,7.83008982 47.4896374,8.36736527 47.4896374,9.03023952 L47.4896374,14.1507485 C47.4896374,14.8134731 48.0283372,15.3508982 48.6929688,15.3508982 L53.8270526,15.3508982 C54.4915341,15.3508982 55.030384,14.8136228 55.030384,14.1507485 L55.030384,9.03023952 C55.0302339,8.36751497 54.4915341,7.83008982 53.8270526,7.83008982 Z" id="Fill-10" fill="#4A4A4A" mask="url(#mask-4)"></path>
        </g>
    </g>
</svg>