<?xml version="1.0" encoding="UTF-8"?>
<svg width="100px" height="100px" viewBox="0 0 100 100" version="1.1" xmlns="http://www.w3.org/2000/svg" xmlns:xlink="http://www.w3.org/1999/xlink">
    <!-- Generator: Sketch 52.2 (67145) - http://www.bohemiancoding.com/sketch -->
    <title>Icons/100_transat</title>
    <desc>Created with Sketch.</desc>
    <g id="Icons/100_transat" stroke="none" stroke-width="1" fill="none" fill-rule="evenodd">
        <g id="Group-16" transform="translate(14.000000, 14.000000)" fill="#4A4A4A">
            <path d="M15.6,57.6 L3.6,57.6 C2.9373,57.6 2.4,57.0627 2.4,56.4 C2.4,55.7373 2.9373,55.2 3.6,55.2 L15.6,55.2 C16.2627,55.2 16.8,55.7373 16.8,56.4 C16.8,57.0627 16.2627,57.6 15.6,57.6 Z M8.4,43.2 L10.8,43.2 L10.8,46.2 C10.8,46.8627 10.2627,47.4 9.6,47.4 C8.9373,47.4 8.4,46.8627 8.4,46.2 L8.4,43.2 Z M6,40.8 L6,42.6 C5.3373,42.6 4.8,42.0627 4.8,41.4 C4.8,40.7373 5.3373,40.2 6,40.2 C6.42105,40.2048 6.8079,40.4334 7.0152,40.8 L6,40.8 Z M15.6,52.8 L10.8,52.8 L10.8,49.5792 C12.23325,49.0725 13.1937,47.7201 13.2,46.2 L13.2,41.16 L14.8644,38.6652 L12.8676,37.3332 L10.56,40.8 L9.5388,40.8 C9.20745,38.83965 7.34955,37.51905 5.3892,37.8504 C3.4287,38.18175 2.1081,40.03965 2.43945,42 C2.733,43.73625 4.23915,45.00525 6,45 L6,46.2 C6.0063,47.7201 6.96675,49.0725 8.4,49.5792 L8.4,52.8 L3.6,52.8 C1.61175,52.8 0,54.41175 0,56.4 C0,58.38825 1.61175,60 3.6,60 L8.4,60 L8.4,69.6 L3.6,69.6 L3.6,72 L15.6,72 L15.6,69.6 L10.8,69.6 L10.8,60 L15.6,60 C17.58825,60 19.2,58.38825 19.2,56.4 C19.2,54.41175 17.58825,52.8 15.6,52.8 Z" id="Fill-1"></path>
            <path d="M52.2,63.6 L52.2,62.4 L55.0548,62.4 L56.9748,60.48 L58.2,61.6968 L59.89695,60 L58.68,58.7784 L60.5784,56.88 L61.8,58.0968 L63.49695,56.4 L62.28,55.1784 L64.1784,53.28 L65.4,54.4968 L67.09695,52.8 L65.88,51.5784 L66.5316,50.9268 C67.24395,50.24625 68.36565,50.24625 69.078,50.9268 C69.78075,51.6297 69.78075,52.7691 69.078,53.472 L57.078,65.472 C56.73975,65.81175 56.2794,66.00195 55.8,66 L24.6,66 C23.60595,66 22.8,65.19405 22.8,64.2 C22.8,63.20595 23.60595,62.4 24.6,62.4 L25.8,62.4 L25.8,63.6 L28.2,63.6 L28.2,62.4 L30.6,62.4 L30.6,63.6 L33,63.6 L33,62.4 L35.4,62.4 L35.4,63.6 L37.8,63.6 L37.8,62.4 L40.2,62.4 L40.2,63.6 L42.6,63.6 L42.6,62.4 L45,62.4 L45,63.6 L47.4,63.6 L47.4,62.4 L49.8,62.4 L49.8,63.6 L52.2,63.6 Z M43.95,34.8 L43.95,33.9996 C43.97205,30.08085 45.31815,26.28465 47.7696,23.2272 L49.2,21.432 L49.2,34.8 L43.95,34.8 Z M41.55,34.8 L31.242,34.8 C31.8789,26.05005 39.1335,19.2588 47.9064,19.2 L45.8916,21.732 C43.1028,25.21485 41.5728,29.53785 41.55,33.9996 L41.55,34.8 Z M51.6,21.432 L53.0304,23.232 C55.48185,26.28945 56.82795,30.08565 56.85,34.0044 L56.85,34.8 L51.6,34.8 L51.6,21.432 Z M69.558,34.8 L59.25,34.8 L59.25,33.9996 C59.2272,29.53785 57.6972,25.21485 54.9084,21.732 L52.8936,19.2 C61.6665,19.2588 68.9211,26.05005 69.558,34.8 Z M72,37.2 L72,36 C71.9874,25.4013 63.3987,16.8126 52.8,16.8 L48,16.8 C37.4013,16.8126 28.8126,25.4013 28.8,36 L28.8,37.2 L49.2,37.2 L49.2,60 L24.6,60 C22.2804,60 20.4,61.8804 20.4,64.2 C20.4,66.5196 22.2804,68.4 24.6,68.4 L25.2,68.4 L25.2,72 L27.6,72 L27.6,68.4 L49.2,68.4 L49.2,72 L51.6,72 L51.6,68.4 L56.4,68.4 L56.4,72 L58.8,72 L58.8,67.1388 L70.77,55.17 C72.40965,53.5299 72.40965,50.8713 70.77,49.2312 C69.108,47.64435 66.492,47.64435 64.83,49.2312 L54.0612,60 L51.6,60 L51.6,37.2 L72,37.2 Z" id="Fill-3"></path>
            <path d="M15.6,9.6 C18.25095,9.6 20.4,11.74905 20.4,14.4 C20.4,17.05095 18.25095,19.2 15.6,19.2 C12.94905,19.2 10.8,17.05095 10.8,14.4 C10.8,11.74905 12.94905,9.6 15.6,9.6 M15.6,21.6 C19.57485,21.5961 22.7961,18.37485 22.8,14.4 C22.8,10.4235 19.5765,7.2 15.6,7.2 C11.6235,7.2 8.4,10.4235 8.4,14.4 C8.4,18.3765 11.6235,21.6 15.6,21.6" id="Fill-5"></path>
            <polygon id="Fill-7" points="14.4 4.8 16.8 4.8 16.8 0 14.4 0"></polygon>
            <polygon id="Fill-9" points="24.91956 3.38628 26.61681 5.08308 23.22321 8.47758 21.52596 6.78078"></polygon>
            <polygon id="Fill-10" points="25.2 15.6 30 15.6 30 13.2 25.2 13.2"></polygon>
            <polygon id="Fill-11" points="24.93216 25.428375 21.54051 22.031925 23.23866 20.336025 26.63046 23.732475"></polygon>
            <polygon id="Fill-12" points="5.212275 2.539155 8.606325 5.933205 6.909225 7.630305 3.515175 4.236255"></polygon>
            <polygon id="Fill-13" points="0 15.6 4.8 15.6 4.8 13.2 0 13.2"></polygon>
            <polygon id="Fill-14" points="14.4 28.8 16.8 28.8 16.8 24 14.4 24"></polygon>
            <polygon id="Fill-15" points="6.26616 25.43079 4.56891 23.73399 7.96251 20.33949 9.65976 22.03629"></polygon>
        </g>
    </g>
</svg>