<?xml version="1.0" encoding="UTF-8"?>
<svg width="100px" height="100px" viewBox="0 0 100 100" version="1.1" xmlns="http://www.w3.org/2000/svg" xmlns:xlink="http://www.w3.org/1999/xlink">
    <!-- Generator: Sketch 52.2 (67145) - http://www.bohemiancoding.com/sketch -->
    <title>Icons/100_car</title>
    <desc>Created with Sketch.</desc>
    <g id="Icons/100_car" stroke="none" stroke-width="1" fill="none" fill-rule="evenodd">
        <g id="Group-16" transform="translate(12.000000, 23.000000)" fill="#4A4A4A">
            <path d="M55.0368027,15.3546737 L52.2811953,15.3546737 C51.5677422,15.3546737 50.9891895,15.9347966 50.9891895,16.6505229 C50.9891895,17.3660983 51.5675918,17.9463721 52.2811953,17.9463721 L55.0368027,17.9463721 C55.7502559,17.9463721 56.3288086,17.3662492 56.3288086,16.6505229 C56.3286582,15.9347966 55.7502559,15.3546737 55.0368027,15.3546737" id="Fill-1"></path>
            <path d="M53.3554807,27.7289849 L52.6663908,30.4932419 C52.6567658,30.5320073 52.6224768,30.5587056 52.5827736,30.5587056 L24.4171662,30.5587056 C24.3776135,30.5587056 24.3430236,30.5317056 24.3333986,30.4933927 L23.6444592,27.7289849 C23.641301,27.716767 23.6342326,27.6881078 23.6600998,27.6549235 C23.685967,27.6217391 23.7154436,27.6217391 23.727926,27.6217391 L53.2717131,27.6217391 C53.2843459,27.6217391 53.3138225,27.6217391 53.3396896,27.6549235 C53.3654064,27.6881078 53.3586389,27.7166162 53.3554807,27.7289849 M55.3764299,26.0599626 C54.8669064,25.4053257 54.0996135,25.0298899 53.2717131,25.0298899 L23.7280764,25.0298899 C22.900176,25.0298899 22.1331838,25.4053257 21.62351,26.0599626 C21.1139865,26.7144486 20.9368264,27.5517503 21.1375979,28.357376 L21.8266877,31.1219346 C22.1244611,32.316119 23.1896779,33.1502531 24.4171662,33.1502531 L52.5827736,33.1502531 C53.8101115,33.1502531 54.8751779,32.316119 55.1732521,31.1217838 L55.862342,28.357376 C56.0631135,27.5515994 55.8859533,26.7142978 55.3764299,26.0599626" id="Fill-3"></path>
            <path d="M70.1094926,13.8861302 C70.1094926,13.076281 70.7662484,12.4175715 71.5736957,12.4175715 L72.951725,12.4175715 C73.7593227,12.4175715 74.4160785,13.076281 74.4160785,13.8861302 C74.4160785,14.6959793 73.7593227,15.3546888 72.951725,15.3546888 L71.5736957,15.3546888 C70.7663988,15.3546888 70.1094926,14.6958285 70.1094926,13.8861302 Z M70.735268,22.8564654 C71.3314164,23.6041693 71.6601703,24.5432866 71.6601703,25.5008061 L71.6601703,40.1474765 C71.6601703,41.7193592 70.3850082,42.9981637 68.8177875,42.9981637 L56.3287484,42.9981637 L56.3287484,40.1474765 C56.3287484,38.6707726 55.1310375,37.4694989 53.6587133,37.4694989 L23.3411664,37.4694989 C21.8688422,37.4694989 20.6712816,38.6707726 20.6712816,40.1474765 L20.6712816,42.9981637 L8.18239297,42.9981637 C6.61502188,42.9981637 5.34001016,41.7193592 5.34001016,40.1474765 L5.34001016,25.5008061 C5.34001016,24.5432866 5.66846328,23.6041693 6.26506289,22.8564654 L10.1813852,17.9462363 L46.7685668,17.9462363 C47.4818695,17.9462363 48.0605727,17.3661134 48.0605727,16.6503872 C48.0605727,15.9348117 47.4820199,15.354538 46.7685668,15.354538 L11.4049633,15.354538 L15.2973734,4.61864413 C15.7041801,3.49625866 16.7776684,2.74221955 17.9684613,2.74221955 L59.0318695,2.74221955 C60.2226625,2.74221955 61.2960004,3.4964095 61.7029574,4.61864413 L65.5952172,15.354538 L60.5496117,15.354538 C59.8360082,15.354538 59.2576059,15.9346609 59.2576059,16.6503872 C59.2576059,17.3659626 59.8358578,17.9462363 60.5496117,17.9462363 L66.8189457,17.9462363 L70.735268,22.8564654 Z M71.6600199,51.2048061 C71.6600199,51.2524709 71.6213695,51.2912363 71.5736957,51.2912363 L67.4394574,51.2912363 C67.3920844,51.2912363 67.353434,51.2524709 67.353434,51.2048061 L67.353434,45.5897112 L68.8174867,45.5897112 C69.8589418,45.5897112 70.8327211,45.2931637 71.6598695,44.7809179 L71.6598695,51.2048061 L71.6600199,51.2048061 Z M53.7450375,42.9981637 L23.2549926,42.9981637 L23.2549926,40.1474765 C23.2549926,40.0998117 23.2937934,40.0610464 23.3411664,40.0610464 L53.6588637,40.0610464 C53.7065375,40.0610464 53.7450375,40.0998117 53.7450375,40.1474765 L53.7450375,42.9981637 Z M9.6464457,51.2048061 C9.6464457,51.2524709 9.6079457,51.2912363 9.56027188,51.2912363 L5.42603359,51.2912363 C5.37866055,51.2912363 5.33985977,51.2524709 5.33985977,51.2048061 L5.33985977,44.7809179 C6.1670082,45.2931637 7.14063711,45.5897112 8.18209219,45.5897112 L9.64629531,45.5897112 L9.64629531,51.2048061 L9.6464457,51.2048061 Z M5.42618398,15.3546888 L4.04815469,15.3546888 C3.24070742,15.3546888 2.58410195,14.6959793 2.58410195,13.8861302 C2.58410195,13.076281 3.24070742,12.4175715 4.04815469,12.4175715 L5.42618398,12.4175715 C6.23378164,12.4175715 6.89038711,13.076281 6.89038711,13.8861302 C6.89038711,14.6958285 6.23363125,15.3546888 5.42618398,15.3546888 Z M17.9681605,0.150822905 C15.6948559,0.150822905 13.6454828,1.59057151 12.8687152,3.73322514 L9.42236367,13.2394877 C9.11285977,11.3072531 7.43886172,9.82602402 5.42618398,9.82602402 L4.04815469,9.82602402 C1.81605703,9.82602402 -6.015625e-05,11.6473927 -6.015625e-05,13.8861302 C-6.015625e-05,16.1248676 1.81605703,17.9462363 4.0480043,17.9462363 L5.42603359,17.9462363 C6.06233633,17.9462363 6.66450039,17.7978117 7.20079336,17.5342978 L4.24727188,21.2375212 C3.28567422,22.4430184 2.75614883,23.9569793 2.75614883,25.5006553 L2.75614883,51.2048061 C2.75614883,52.6815101 3.95370938,53.8827838 5.42603359,53.8827838 L9.56027188,53.8827838 C11.0325961,53.8827838 12.2304574,52.6815101 12.2304574,51.2048061 L12.2304574,45.5897112 L64.7694223,45.5897112 L64.7694223,51.2048061 C64.7694223,52.6815101 65.9671332,53.8827838 67.4394574,53.8827838 L71.5736957,53.8827838 C73.0460199,53.8827838 74.2437309,52.6815101 74.2437309,51.2048061 L74.2437309,25.5006553 C74.2437309,23.9569793 73.7143559,22.4428676 72.7526078,21.2375212 L69.7990863,17.5342978 C70.3352289,17.7978117 70.937393,17.9462363 71.5736957,17.9462363 L72.9518754,17.9462363 C75.183973,17.9462363 76.9999398,16.1248676 76.9999398,13.8861302 C76.9999398,11.6473927 75.183973,9.82602402 72.9518754,9.82602402 L71.5738461,9.82602402 C69.5611684,9.82602402 67.8874711,11.3072531 67.577516,13.2396385 L64.1310141,3.73337598 C63.3542465,1.59042067 61.3048734,0.150822905 59.0317191,0.150822905 L17.9681605,0.150822905 Z" id="Fill-5"></path>
            <path d="M13.6945854,34.7050911 C12.2222611,34.7050911 11.0245502,35.9063648 11.0245502,37.3830687 C11.0245502,38.8597726 12.2222611,40.0610464 13.6945854,40.0610464 C15.1669096,40.0610464 16.3646205,38.8597726 16.3646205,37.3830687 C16.3646205,35.9063648 15.1669096,34.7050911 13.6945854,34.7050911" id="Fill-8"></path>
            <path d="M63.3054898,34.7050911 C61.8331656,34.7050911 60.6353043,35.9063648 60.6353043,37.3830687 C60.6353043,38.8597726 61.8331656,40.0610464 63.3054898,40.0610464 C64.7778141,40.0610464 65.975525,38.8597726 65.975525,37.3830687 C65.975525,35.9063648 64.7775133,34.7050911 63.3054898,34.7050911" id="Fill-10"></path>
            <path d="M13.0056309,30.5585246 C11.8182969,30.5585246 10.8523379,29.589843 10.8523379,28.3989771 C10.8523379,27.2078095 11.8181465,26.2391279 13.0056309,26.2391279 C14.1931152,26.2391279 15.1589238,27.2078095 15.1589238,28.3989771 C15.1589238,29.589843 14.1929648,30.5585246 13.0056309,30.5585246 M13.0056309,23.6478821 C10.3934961,23.6478821 8.26847656,25.7790721 8.26847656,28.3991279 C8.26847656,31.019033 10.3934961,33.1503737 13.0056309,33.1503737 C15.6177656,33.1503737 17.7427852,31.019033 17.7427852,28.3991279 C17.7427852,25.7790721 15.6177656,23.6478821 13.0056309,23.6478821" id="Fill-12"></path>
            <path d="M63.9944443,30.5585246 C62.80696,30.5585246 61.8411514,29.589843 61.8411514,28.3989771 C61.8411514,27.2078095 62.80696,26.2391279 63.9944443,26.2391279 C65.1817783,26.2391279 66.1475869,27.2078095 66.1475869,28.3989771 C66.1475869,29.589843 65.1819287,30.5585246 63.9944443,30.5585246 M63.9944443,23.6478821 C61.3823096,23.6478821 59.25729,25.7790721 59.25729,28.3991279 C59.25729,31.019033 61.3823096,33.1503737 63.9944443,33.1503737 C66.6064287,33.1503737 68.7314482,31.019033 68.7314482,28.3991279 C68.7314482,25.7790721 66.6064287,23.6478821 63.9944443,23.6478821" id="Fill-14"></path>
        </g>
    </g>
</svg>
