<?xml version="1.0" encoding="UTF-8"?>
<svg width="100px" height="100px" viewBox="0 0 100 100" version="1.1" xmlns="http://www.w3.org/2000/svg" xmlns:xlink="http://www.w3.org/1999/xlink">
    <!-- Generator: Sketch 52.2 (67145) - http://www.bohemiancoding.com/sketch -->
    <title>Icons/100_wifi</title>
    <desc>Created with Sketch.</desc>
    <g id="Icons/100_wifi" stroke="none" stroke-width="1" fill="none" fill-rule="evenodd">
        <g id="Group-29" transform="translate(14.000000, 20.000000)" fill="#FFF">
            <path d="M7.766595,12.91443 C7.144395,13.14243 6.824445,13.83198 7.052295,14.45433 C7.280295,15.07653 7.969845,15.39588 8.592195,15.16788 C10.792395,14.36283 13.207545,14.36283 15.407745,15.16788 C15.540195,15.21603 15.680295,15.24063 15.820845,15.24123 C16.402695,15.24123 16.900845,14.82393 17.002695,14.25093 C17.104095,13.67793 16.780095,13.11483 16.233345,12.91443 C13.499445,11.91483 10.500645,11.91483 7.766595,12.91443" id="Fill-1"></path>
            <path d="M19.34649,10.321065 C19.90194,10.321665 20.38539,9.940815 20.51484,9.400515 C20.64369,8.860365 20.38539,8.301915 19.89024,8.050515 C14.92794,5.548065 9.07209,5.548065 4.10979,8.050515 C3.54909,8.364615 3.33519,9.064815 3.62454,9.638415 C3.91404,10.212615 4.60434,10.456365 5.19024,10.191615 C9.46989,8.032965 14.52069,8.032965 18.80034,10.191615 C18.96969,10.277115 19.15659,10.321665 19.34649,10.321065" id="Fill-3"></path>
            <path d="M1.811715,5.341185 C8.093565,1.617585 15.906465,1.617585 22.188315,5.341185 C22.756665,5.665185 23.480265,5.473635 23.814315,4.910535 C24.148215,4.347435 23.968965,3.620835 23.411715,3.277485 C16.375215,-0.892665 7.624815,-0.892665 0.588315,3.277485 C0.031065,3.620835 -0.148185,4.347435 0.185715,4.910535 C0.519765,5.473635 1.243365,5.665185 1.811715,5.341185" id="Fill-5"></path>
            <path d="M55.766595,12.91443 C55.144395,13.14243 54.824445,13.83198 55.052295,14.45433 C55.280295,15.07653 55.969845,15.39588 56.592195,15.16788 C58.792395,14.36283 61.207545,14.36283 63.407745,15.16788 C63.540195,15.21603 63.680295,15.24063 63.820845,15.24123 C64.402695,15.24123 64.900845,14.82393 65.002695,14.25093 C65.104095,13.67793 64.780095,13.11483 64.233345,12.91443 C61.499445,11.91483 58.500645,11.91483 55.766595,12.91443" id="Fill-8"></path>
            <path d="M67.34649,10.321065 C67.90194,10.321665 68.38539,9.940815 68.51484,9.400515 C68.64369,8.860365 68.38539,8.301915 67.89024,8.050515 C62.92794,5.548065 57.07209,5.548065 52.10979,8.050515 C51.54909,8.364615 51.33519,9.064815 51.62454,9.638415 C51.91404,10.212615 52.60434,10.456365 53.19024,10.191615 C57.46989,8.032965 62.52069,8.032965 66.80034,10.191615 C66.96969,10.277115 67.15659,10.321665 67.34649,10.321065" id="Fill-10"></path>
            <path d="M48.168165,4.921065 C48.506265,5.491215 49.242165,5.679315 49.811715,5.341215 C56.093565,1.617615 63.906465,1.617615 70.188315,5.341215 C70.756665,5.665215 71.480265,5.473665 71.814315,4.910565 C72.148215,4.347465 71.968965,3.620865 71.411715,3.277515 C64.375215,-0.892635 55.624815,-0.892635 48.588315,3.277515 C48.018165,3.615015 47.830065,4.351515 48.168165,4.921065" id="Fill-12"></path>
            <path d="M69.6,51.4656 C69.6,52.1283 69.0627,52.6656 68.4,52.6656 L3.6,52.6656 C2.9373,52.6656 2.4,52.1283 2.4,51.4656 L2.4,39.4656 C2.4,38.8029 2.9373,38.2656 3.6,38.2656 L68.4,38.2656 C69.0627,38.2656 69.6,38.8029 69.6,39.4656 L69.6,51.4656 Z M57.6,57.4656 L64.8,57.4656 L64.8,55.0656 L57.6,55.0656 L57.6,57.4656 Z M7.2,57.4656 L14.4,57.4656 L14.4,55.0656 L7.2,55.0656 L7.2,57.4656 Z M10.8,21.7656 C10.8,21.1029 11.3373,20.5656 12,20.5656 C12.6627,20.5656 13.2,21.1029 13.2,21.7656 L13.2,35.8656 L10.8,35.8656 L10.8,21.7656 Z M58.8,21.7656 C58.8,21.1029 59.3373,20.5656 60,20.5656 C60.6627,20.5656 61.2,21.1029 61.2,21.7656 L61.2,35.8656 L58.8,35.8656 L58.8,21.7656 Z M68.4,35.8656 L63.6,35.8656 L63.6,21.7656 C63.6,19.7775 61.9881,18.1656 60,18.1656 C58.0119,18.1656 56.4,19.7775 56.4,21.7656 L56.4,35.8656 L15.6,35.8656 L15.6,21.7656 C15.6,19.7775 13.9881,18.1656 12,18.1656 C10.0119,18.1656 8.4,19.7775 8.4,21.7656 L8.4,35.8656 L3.6,35.8656 C1.6119,35.8656 0,37.4775 0,39.4656 L0,51.4656 C0,53.4537 1.6119,55.0656 3.6,55.0656 L4.8,55.0656 L4.8,57.4656 C4.8,58.791 5.8746,59.8656 7.2,59.8656 L14.4,59.8656 C15.7254,59.8656 16.8,58.791 16.8,57.4656 L16.8,55.0656 L55.2,55.0656 L55.2,57.4656 C55.2,58.791 56.2746,59.8656 57.6,59.8656 L64.8,59.8656 C66.1254,59.8656 67.2,58.791 67.2,57.4656 L67.2,55.0656 L68.4,55.0656 C70.3881,55.0656 72,53.4537 72,51.4656 L72,39.4656 C72,37.4775 70.3881,35.8656 68.4,35.8656 Z" id="Fill-15"></path>
            <path d="M19.2,46.6656 C18.5373,46.6656 18,46.1283 18,45.4656 C18,44.8029 18.5373,44.2656 19.2,44.2656 C19.8627,44.2656 20.4,44.8029 20.4,45.4656 C20.4,46.1283 19.8627,46.6656 19.2,46.6656 M19.2,41.8656 C17.2119,41.8656 15.6,43.4775 15.6,45.4656 C15.6,47.4537 17.2119,49.0656 19.2,49.0656 C21.1881,49.0656 22.8,47.4537 22.8,45.4656 C22.8,43.4775 21.1881,41.8656 19.2,41.8656" id="Fill-17"></path>
            <path d="M9.6,46.6656 C8.9373,46.6656 8.4,46.1283 8.4,45.4656 C8.4,44.8029 8.9373,44.2656 9.6,44.2656 C10.2627,44.2656 10.8,44.8029 10.8,45.4656 C10.8,46.1283 10.2627,46.6656 9.6,46.6656 M9.6,41.8656 C7.6119,41.8656 6,43.4775 6,45.4656 C6,47.4537 7.6119,49.0656 9.6,49.0656 C11.5881,49.0656 13.2,47.4537 13.2,45.4656 C13.2,43.4775 11.5881,41.8656 9.6,41.8656" id="Fill-19"></path>
            <path d="M64.8,41.8656 C64.1373,41.8656 63.6,42.4029 63.6,43.0656 L63.6,47.8656 C63.6,48.5283 64.1373,49.0656 64.8,49.0656 C65.4627,49.0656 66,48.5283 66,47.8656 L66,43.0656 C66,42.4029 65.4627,41.8656 64.8,41.8656" id="Fill-21"></path>
            <path d="M60,41.8656 C59.3373,41.8656 58.8,42.4029 58.8,43.0656 L58.8,47.8656 C58.8,48.5283 59.3373,49.0656 60,49.0656 C60.6627,49.0656 61.2,48.5283 61.2,47.8656 L61.2,43.0656 C61.2,42.4029 60.6627,41.8656 60,41.8656" id="Fill-23"></path>
            <path d="M50.4,41.8656 C49.7373,41.8656 49.2,42.4029 49.2,43.0656 L49.2,47.8656 C49.2,48.5283 49.7373,49.0656 50.4,49.0656 C51.0627,49.0656 51.6,48.5283 51.6,47.8656 L51.6,43.0656 C51.6,42.4029 51.0627,41.8656 50.4,41.8656" id="Fill-25"></path>
            <path d="M55.2,41.8656 C54.5373,41.8656 54,42.4029 54,43.0656 L54,47.8656 C54,48.5283 54.5373,49.0656 55.2,49.0656 C55.8627,49.0656 56.4,48.5283 56.4,47.8656 L56.4,43.0656 C56.4,42.4029 55.8627,41.8656 55.2,41.8656" id="Fill-27"></path>
        </g>
    </g>
</svg>
