<?xml version="1.0" encoding="UTF-8"?>
<svg width="100px" height="100px" viewBox="0 0 100 100" version="1.1" xmlns="http://www.w3.org/2000/svg" xmlns:xlink="http://www.w3.org/1999/xlink">
    <!-- Generator: Sketch 52.2 (67145) - http://www.bohemiancoding.com/sketch -->
    <title>Icons/100_kitchen</title>
    <desc>Created with Sketch.</desc>
    <g id="Icons/100_kitchen" stroke="none" stroke-width="1" fill="none" fill-rule="evenodd">
        <g id="Group-21" transform="translate(12.000000, 12.000000)" fill="#FFF">
            <path d="M74.433223,74.433223 L66.7335238,74.433223 L66.7335238,59.0335238 L74.4333734,59.0335238 L74.4333734,74.433223 L74.433223,74.433223 Z M56.4666566,74.433223 L64.1666566,74.433223 L64.1666566,59.0335238 L56.4666566,59.0335238 L56.4666566,74.433223 Z M23.0999398,74.433223 L53.8999398,74.433223 L53.8999398,48.7666566 L23.0999398,48.7666566 L23.0999398,74.433223 Z M2.56665664,74.433223 L2.56665664,59.0335238 L20.5335238,59.0335238 L20.5335238,74.433223 L2.56665664,74.433223 Z M2.56680703,56.4666566 L20.5335238,56.4666566 L20.5335238,48.7666566 L2.56680703,48.7666566 L2.56680703,56.4666566 Z M25.6665063,46.2000902 L35.933223,46.2000902 L35.933223,41.066807 L25.6665063,41.066807 L25.6665063,46.2000902 Z M56.4666566,56.4666566 L74.4333734,56.4666566 L74.4333734,48.7666566 L56.4666566,48.7666566 L56.4666566,56.4666566 Z M75.7166566,46.2000902 L74.4335238,46.2000902 L74.4335238,33.3666566 C74.433223,30.5355531 72.1310434,28.233223 69.2999398,28.233223 C66.4688363,28.233223 64.1666566,30.5355531 64.1666566,33.3666566 L64.1666566,34.6497895 L66.7335238,34.6497895 L66.7335238,33.3666566 C66.7335238,31.9510297 67.8844633,30.7997895 69.3000902,30.7997895 C70.7155668,30.7997895 71.8669574,31.9510297 71.8669574,33.3666566 L71.8669574,41.066807 L69.2999398,41.066807 L69.2999398,43.6333734 L71.8669574,43.6333734 L71.8669574,46.2000902 L55.183223,46.2000902 L38.4999398,46.2000902 L38.4999398,43.6333734 L41.066807,43.6333734 L41.066807,41.066807 L38.4999398,41.066807 L38.4999398,39.7833734 C38.4999398,39.0736801 37.9249965,38.4999398 37.2166566,38.4999398 L24.3833734,38.4999398 C23.6750336,38.4999398 23.1000902,39.0736801 23.1000902,39.7833734 L23.1000902,41.066807 L20.5333734,41.066807 L20.5333734,43.6333734 L23.1000902,43.6333734 L23.1000902,46.2000902 L21.8166566,46.2000902 L1.28337344,46.2000902 C0.575033594,46.2000902 -6.015625e-05,46.7735297 -6.015625e-05,47.4833734 L-6.015625e-05,75.7165063 C-6.015625e-05,76.42635 0.575033594,76.9999398 1.28337344,76.9999398 L21.8165063,76.9999398 C21.8177094,76.9999398 21.8186117,76.9997895 21.8196645,76.9997895 L55.183223,76.9997895 L55.1833734,76.9997895 L75.7165063,76.9997895 C76.4261996,76.9997895 76.9997895,76.4261996 76.9997895,75.7165063 L76.9997895,47.4833734 C76.9999398,46.7735297 76.42635,46.2000902 75.7166566,46.2000902 Z" id="Fill-1"></path>
            <path d="M28.2332832,69.3 L48.7665664,69.3 L48.7665664,59.0332832 L28.2332832,59.0332832 L28.2332832,69.3 Z M50.05,56.4667168 L26.95,56.4667168 C26.2416602,56.4667168 25.6667168,57.0403066 25.6667168,57.75 L25.6667168,70.5832832 C25.6667168,71.2929766 26.2416602,71.8665664 26.95,71.8665664 L50.05,71.8665664 C50.7596934,71.8665664 51.3332832,71.2929766 51.3332832,70.5832832 L51.3332832,57.75 C51.3332832,57.0403066 50.7598437,56.4667168 50.05,56.4667168 Z" id="Fill-4"></path>
            <polygon id="Fill-6" points="39.7834336 53.9 42.35 53.9 42.35 51.3332832 39.7834336 51.3332832"></polygon>
            <polygon id="Fill-7" points="34.65 53.9 37.2167168 53.9 37.2167168 51.3332832 34.65 51.3332832"></polygon>
            <polygon id="Fill-8" points="29.5167168 53.9 32.0834336 53.9 32.0834336 51.3332832 29.5167168 51.3332832"></polygon>
            <polygon id="Fill-9" points="44.9167168 53.9 47.4834336 53.9 47.4834336 51.3332832 44.9167168 51.3332832"></polygon>
            <polygon id="Fill-10" points="8.9832832 53.9 14.1165664 53.9 14.1165664 51.3332832 8.9832832 51.3332832"></polygon>
            <polygon id="Fill-11" points="8.9832832 64.1667168 14.1165664 64.1667168 14.1165664 61.6 8.9832832 61.6"></polygon>
            <polygon id="Fill-12" points="62.8832832 53.9 68.0165664 53.9 68.0165664 51.3332832 62.8832832 51.3332832"></polygon>
            <polygon id="Fill-13" points="59.0332832 68.0167168 61.5998496 68.0167168 61.5998496 64.1667168 59.0332832 64.1667168"></polygon>
            <polygon id="Fill-14" points="69.3 68.0167168 71.8667168 68.0167168 71.8667168 64.1667168 69.3 64.1667168"></polygon>
            <path d="M26.1979266,20.5334637 L29.1406199,17.5906199 C29.3818465,17.3505965 29.5165965,17.0233465 29.5165965,16.6833133 L29.5165965,2.56674687 L47.4833133,2.56674687 L47.4833133,16.6834637 C47.4833133,17.0234969 47.6180633,17.3507469 47.8592898,17.5907703 L50.8019832,20.5334637 L26.1979266,20.5334637 Z M21.9142,22.308073 C22.1131668,22.7867664 22.5814832,23.0998797 23.1000301,23.0998797 L53.9000301,23.0998797 C54.4182762,23.0998797 54.8880965,22.7867664 55.0858602,22.308073 C55.2846766,21.8281766 55.1744402,21.2763934 54.8071863,20.9094402 L50.0500301,16.1521336 L50.0500301,1.28331328 C50.0500301,0.574973437 49.4764402,3.0078125e-05 48.7665965,3.0078125e-05 L28.2333133,3.0078125e-05 C27.5249734,3.0078125e-05 26.9500301,0.574973437 26.9500301,1.28331328 L26.9500301,16.1519832 L22.1927234,20.9092898 C21.8256199,21.276243 21.7153836,21.8281766 21.9142,22.308073 Z" id="Fill-15"></path>
            <path d="M2.56670176,2.56670176 L20.5334186,2.56670176 L20.5334186,15.399985 L2.56670176,15.399985 L2.56670176,2.56670176 Z M1.28326816,17.9665514 L21.8165514,17.9665514 C22.5248912,17.9665514 23.0998346,17.391608 23.0998346,16.6832682 L23.0998346,1.28326816 C23.099985,0.57492832 22.5250416,-1.50390625e-05 21.8167018,-1.50390625e-05 L1.28326816,-1.50390625e-05 C0.57492832,-1.50390625e-05 -1.50390625e-05,0.57492832 -1.50390625e-05,1.28326816 L-1.50390625e-05,16.6832682 C-1.50390625e-05,17.391608 0.57492832,17.9665514 1.28326816,17.9665514 Z" id="Fill-16"></path>
            <polygon id="Fill-17" points="15.4 12.8332832 17.9667168 12.8332832 17.9667168 7.7 15.4 7.7"></polygon>
            <path d="M74.4333734,15.399985 L56.4666566,15.399985 L56.4666566,2.56670176 L74.4333734,2.56670176 L74.4333734,15.399985 Z M75.7166566,-1.50390625e-05 L55.183223,-1.50390625e-05 C54.4735297,-1.50390625e-05 53.9000902,0.57492832 53.9000902,1.28326816 L53.9000902,16.6832682 C53.9000902,17.391608 54.4735297,17.9665514 55.183223,17.9665514 L75.7165063,17.9665514 C76.4261996,17.9665514 76.9997895,17.391608 76.9997895,16.6832682 L76.9997895,1.28326816 C76.9999398,0.57492832 76.42635,-1.50390625e-05 75.7166566,-1.50390625e-05 Z" id="Fill-18"></path>
            <polygon id="Fill-19" points="59.0334336 12.8332832 61.6 12.8332832 61.6 7.7 59.0334336 7.7"></polygon>
            <path d="M7.70003008,28.2334186 L7.70003008,33.5874752 C7.22193828,33.7571158 6.78715898,34.0183443 6.41659648,34.3504068 C6.04618437,34.0183443 5.61140508,33.7571158 5.13346367,33.5876256 L5.13346367,28.2334186 L7.70003008,28.2334186 Z M12.8333133,28.2334186 L12.8333133,33.5876256 C12.3553719,33.7571158 11.9204422,34.0183443 11.5500301,34.3504068 C11.179618,34.0183443 10.7446883,33.7571158 10.2667469,33.5876256 L10.2667469,28.2334186 L12.8333133,28.2334186 Z M14.1167469,38.499985 C13.4096102,38.499985 12.8334637,37.9238385 12.8334637,37.2167018 C12.8334637,36.509565 13.4096102,35.9334186 14.1167469,35.9334186 C14.8238836,35.9334186 15.4000301,36.509565 15.4000301,37.2167018 C15.4000301,37.9238385 14.8238836,38.499985 14.1167469,38.499985 Z M8.98331328,38.499985 C8.27617656,38.499985 7.70003008,37.9238385 7.70003008,37.2167018 C7.70003008,36.509565 8.27617656,35.9334186 8.98331328,35.9334186 C9.69045,35.9334186 10.2665965,36.509565 10.2665965,37.2167018 C10.2667469,37.9238385 9.69045,38.499985 8.98331328,38.499985 Z M3.85003008,38.499985 C3.14289336,38.499985 2.56674688,37.9238385 2.56674688,37.2167018 C2.56674688,36.509565 3.14289336,35.9334186 3.85003008,35.9334186 C4.5571668,35.9334186 5.13331328,36.509565 5.13331328,37.2167018 C5.13331328,37.9238385 4.5571668,38.499985 3.85003008,38.499985 Z M3.0078125e-05,37.2167018 C3.0078125e-05,39.339315 1.7274168,41.0667018 3.85003008,41.0667018 C4.83523906,41.0667018 5.73502617,40.6941842 6.41659648,40.0829967 C7.09831719,40.6941842 7.9981043,41.0667018 8.98331328,41.0667018 C9.96852227,41.0667018 10.8683094,40.6941842 11.5500301,40.0829967 C12.2317508,40.6941842 13.1313875,41.0667018 14.1167469,41.0667018 C16.2393602,41.0667018 17.9667469,39.339315 17.9667469,37.2167018 C17.9667469,35.5439068 16.8935594,34.1174518 15.4000301,33.5874752 L15.4000301,28.2334186 L23.1000301,28.2334186 L23.1000301,25.6667018 L15.4000301,25.6667018 L15.4000301,23.099985 L12.8333133,23.099985 L12.8333133,25.6667018 L10.2667469,25.6667018 L10.2667469,23.099985 L7.70003008,23.099985 L7.70003008,25.6667018 L5.13346367,25.6667018 L5.13346367,23.099985 L2.56674687,23.099985 L2.56674687,25.6667018 L3.0078125e-05,25.6667018 L3.0078125e-05,28.2334186 L2.56674687,28.2334186 L2.56674687,33.5874752 C1.07321758,34.1174518 3.0078125e-05,35.5439068 3.0078125e-05,37.2167018 Z" id="Fill-20"></path>
        </g>
    </g>
</svg>
