<?xml version="1.0" encoding="UTF-8"?>
<svg width="100px" height="100px" viewBox="0 0 100 100" version="1.1" xmlns="http://www.w3.org/2000/svg" xmlns:xlink="http://www.w3.org/1999/xlink">
    <!-- Generator: Sketch 52.2 (67145) - http://www.bohemiancoding.com/sketch -->
    <title>Icons/100_villa</title>
    <desc>Created with Sketch.</desc>
    <g id="Icons/100_villa" stroke="none" stroke-width="1" fill="none" fill-rule="evenodd">
        <g id="Group-11" transform="translate(12.000000, 23.000000)" fill="#FFF">
            <path d="M71.8763179,47.322 L70.5125324,47.322 C69.8479008,47.322 69.3090509,47.8644451 69.3090509,48.533511 C69.3090509,49.2022747 69.8477507,49.7447198 70.5125324,49.7447198 L71.8763179,49.7447198 L71.8763179,52.4903379 L30.6437936,52.4903379 L30.6437936,49.7447198 L57.677548,49.7447198 C58.3421795,49.7447198 58.8810294,49.2024258 58.8810294,48.533511 C58.8810294,47.8645962 58.3423296,47.322 57.677548,47.322 L30.6437936,47.322 L30.6437936,20.6625632 L37.1415129,20.6625632 C37.8059943,20.6625632 38.3448442,20.1202692 38.3448442,19.4510522 C38.3448442,18.7819863 37.8061444,18.2396923 37.1415129,18.2396923 L31.9652517,18.2396923 L51.2598306,2.90542033 L70.5547097,18.2398434 L42.2749963,18.2398434 C41.6103647,18.2398434 41.0716649,18.7821374 41.0716649,19.4512033 C41.0716649,20.1204203 41.6102146,20.6625632 42.2749963,20.6625632 L71.8763179,20.6625632 L71.8763179,47.322 Z M28.2371308,42.1539643 L4.97367466,42.1539643 L4.97367466,20.6625632 L25.6742166,20.6625632 C25.6550041,20.9516154 25.7366571,21.2483736 25.928932,21.4937582 C26.3407994,22.018978 27.0972906,22.1084286 27.6190294,21.6938132 L28.2371308,21.2024396 L28.2371308,42.1539643 Z M25.5097097,52.4903379 L28.2371308,52.4903379 L28.2371308,44.5763819 L25.5097097,44.5763819 L25.5097097,52.4903379 Z M20.375776,52.4903379 L23.1031971,52.4903379 L23.1031971,44.5763819 L20.375776,44.5763819 L20.375776,52.4903379 Z M15.2416922,52.4903379 L17.9691133,52.4903379 L17.9691133,44.5763819 L15.2416922,44.5763819 L15.2416922,52.4903379 Z M10.1076084,52.4903379 L12.8350294,52.4903379 L12.8350294,44.5763819 L10.1076084,44.5763819 L10.1076084,52.4903379 Z M4.97367466,52.4903379 L7.70109571,52.4903379 L7.70109571,44.5763819 L4.97367466,44.5763819 L4.97367466,52.4903379 Z M2.4065577,18.2398434 L2.4065577,10.3258874 L38.0392458,10.3258874 L28.0813296,18.2398434 L2.4065577,18.2398434 Z M75.6466162,52.4903379 L74.2828306,52.4903379 L74.2828306,21.2025907 L74.9007819,21.6939643 C75.1217253,21.8693901 75.3846961,21.9546099 75.6458657,21.9546099 C76.0012965,21.9546099 76.3537253,21.7965604 76.5911795,21.4937582 C77.0028969,20.9686896 76.9140392,20.207 76.3924505,19.7923846 L52.0059651,0.411684066 C51.5687312,0.0641565934 50.9518306,0.0641565934 50.5147468,0.411684066 L41.0877253,7.90346978 L1.20337641,7.90346978 C0.538894932,7.90346978 4.50292398e-05,8.44561264 4.50292398e-05,9.11467857 L4.50292398e-05,19.4512033 C4.50292398e-05,20.1202692 0.538744834,20.6625632 1.20337641,20.6625632 L2.56716199,20.6625632 L2.56716199,52.4903379 L1.20337641,52.4903379 C0.538894932,52.4903379 4.50292398e-05,53.0326319 4.50292398e-05,53.7018489 C4.50292398e-05,54.3706126 0.538744834,54.9130577 1.20337641,54.9130577 L75.6467663,54.9130577 C76.3112478,54.9130577 76.8500977,54.3707637 76.8500977,53.7018489 C76.8499476,53.0326319 76.3112478,52.4903379 75.6466162,52.4903379 Z" id="Fill-1"></path>
            <path d="M65.3784335,47.322 L62.8116168,47.322 C62.1472854,47.322 61.6084355,47.8644451 61.6084355,48.533511 C61.6084355,49.2022747 62.1471353,49.7447198 62.8116168,49.7447198 L65.3784335,49.7447198 C66.042915,49.7447198 66.5817649,49.2024258 66.5817649,48.533511 C66.5817649,47.8645962 66.042915,47.322 65.3784335,47.322" id="Fill-4"></path>
            <path d="M35.7778324,28.5764286 L41.0722203,28.5764286 L41.0722203,25.8308104 L35.7778324,25.8308104 L35.7778324,28.5764286 Z M35.7778324,36.3288599 L41.0722203,36.3288599 L41.0722203,30.9992995 L35.7778324,30.9992995 L35.7778324,36.3288599 Z M42.2754016,23.4080907 L34.5743509,23.4080907 C33.9098694,23.4080907 33.3710195,23.9503846 33.3710195,24.6194505 L33.3710195,37.5400687 C33.3710195,38.2089835 33.9097193,38.7514286 34.5743509,38.7514286 L42.2754016,38.7514286 C42.939883,38.7514286 43.4787329,38.2091346 43.4787329,37.5400687 L43.4787329,24.6194505 C43.4787329,23.9503846 42.9400331,23.4080907 42.2754016,23.4080907 Z" id="Fill-6"></path>
            <path d="M48.6128168,28.5764286 L53.9072047,28.5764286 L53.9072047,25.8308104 L48.6128168,25.8308104 L48.6128168,28.5764286 Z M48.6128168,36.3288599 L53.9072047,36.3288599 L53.9072047,30.9992995 L48.6128168,30.9992995 L48.6128168,36.3288599 Z M55.1105361,23.4080907 L47.4094854,23.4080907 C46.7450039,23.4080907 46.206154,23.9503846 46.206154,24.6194505 L46.206154,37.5400687 C46.206154,38.2089835 46.7448538,38.7514286 47.4094854,38.7514286 L55.1105361,38.7514286 C55.7750175,38.7514286 56.3138674,38.2091346 56.3138674,37.5400687 L56.3138674,24.6194505 C56.3138674,23.9503846 55.7750175,23.4080907 55.1105361,23.4080907 Z" id="Fill-8"></path>
            <path d="M61.4479513,28.5764286 L66.7423392,28.5764286 L66.7423392,25.8308104 L61.4479513,25.8308104 L61.4479513,28.5764286 Z M61.4479513,36.3288599 L66.7423392,36.3288599 L66.7423392,30.9992995 L61.4479513,30.9992995 L61.4479513,36.3288599 Z M67.9455205,23.4080907 L60.2446199,23.4080907 C59.5801384,23.4080907 59.0412885,23.9503846 59.0412885,24.6194505 L59.0412885,37.5400687 C59.0412885,38.2089835 59.5799883,38.7514286 60.2446199,38.7514286 L67.9456706,38.7514286 C68.610152,38.7514286 69.1490019,38.2091346 69.1490019,37.5400687 L69.1490019,24.6194505 C69.1488519,23.9503846 68.610152,23.4080907 67.9455205,23.4080907 Z" id="Fill-9"></path>
            <path d="M49.8963002,13.0715659 L52.6237212,13.0715659 L52.6237212,10.3259478 L49.8963002,10.3259478 L49.8963002,13.0715659 Z M53.8270526,7.90322802 L48.6929688,7.90322802 C48.0284873,7.90322802 47.4896374,8.44552198 47.4896374,9.11458791 L47.4896374,14.2829258 C47.4896374,14.9518407 48.0283372,15.4942857 48.6929688,15.4942857 L53.8270526,15.4942857 C54.4915341,15.4942857 55.030384,14.9519918 55.030384,14.2829258 L55.030384,9.11458791 C55.0302339,8.44567308 54.4915341,7.90322802 53.8270526,7.90322802 Z" id="Fill-10"></path>
        </g>
    </g>
</svg>
