<?xml version="1.0" encoding="utf-8"?>
<!-- Generator: Adobe Illustrator 22.1.0, SVG Export Plug-In . SVG Version: 6.00 Build 0)  -->
<svg version="1.1" id="Calque_1" xmlns="http://www.w3.org/2000/svg" xmlns:xlink="http://www.w3.org/1999/xlink" x="0px" y="0px"
	 viewBox="0 0 88.4 37.1" style="enable-background:new 0 0 88.4 37.1;" xml:space="preserve">
<style type="text/css">
	.st0{fill:#FFFFFF;}
</style>
<g>
	<path class="st0" d="M13.4,9.1c0.5,0.7,0.7,1.5,0.7,2.4c0,1.3-0.5,2.4-1.6,3.1c-1,0.7-2.6,1.1-4.6,1.1H0V0.3h7.5
		c1.9,0,3.3,0.4,4.3,1.1c1,0.7,1.5,1.7,1.5,2.9c0,0.7-0.2,1.4-0.5,2c-0.4,0.6-0.9,1-1.5,1.4C12.2,7.9,12.9,8.4,13.4,9.1z M3.5,2.9
		v3.6h3.5c0.9,0,1.5-0.2,2-0.5c0.5-0.3,0.7-0.8,0.7-1.4S9.5,3.7,9.1,3.4C8.6,3.1,8,2.9,7.1,2.9H3.5z M9.8,12.5
		c0.5-0.3,0.7-0.8,0.7-1.4c0-1.3-0.9-1.9-2.8-1.9H3.5V13h4.2C8.6,13,9.3,12.8,9.8,12.5z"/>
	<path class="st0" d="M27,12.4h-7.1l-1.4,3.3h-3.7l6.9-15.4h3.5l6.9,15.4h-3.7L27,12.4z M25.9,9.7l-2.4-5.9L21,9.7H25.9z"/>
	<path class="st0" d="M33.7,0.3h3.6v15.4h-3.6V0.3z"/>
	<path class="st0" d="M48.3,10.2v5.5h-3.6v-5.5l-6-9.9h3.8l4.1,6.8l4.1-6.8h3.5L48.3,10.2z"/>
	<path class="st0" d="M58.3,14.9c-1.3-0.7-2.3-1.6-3-2.8c-0.7-1.2-1.1-2.6-1.1-4.1c0-1.5,0.4-2.9,1.1-4.1C56,2.7,57,1.7,58.3,1
		c1.3-0.7,2.7-1,4.3-1c1.6,0,3,0.3,4.3,1c1.3,0.7,2.3,1.6,3,2.8S71,6.5,71,8c0,1.5-0.4,2.9-1.1,4.1s-1.7,2.2-3,2.8
		c-1.3,0.7-2.7,1-4.3,1C61,15.9,59.5,15.6,58.3,14.9z M65.1,12.3c0.7-0.4,1.3-1,1.7-1.7s0.6-1.6,0.6-2.6c0-1-0.2-1.8-0.6-2.6
		s-1-1.3-1.7-1.7S63.5,3,62.6,3c-0.9,0-1.7,0.2-2.5,0.6s-1.3,1-1.7,1.7C58,6.2,57.8,7,57.8,8c0,1,0.2,1.8,0.6,2.6
		c0.4,0.7,1,1.3,1.7,1.7s1.6,0.6,2.5,0.6C63.5,12.9,64.3,12.7,65.1,12.3z"/>
	<path class="st0" d="M79.3,9.6l-2.1,2.2v3.9h-3.5V0.3h3.5v7.2l6.8-7.2h4l-6.4,6.9l6.8,8.5h-4.2L79.3,9.6z"/>
</g>
<g>
	<path class="st0" d="M14.7,22.3L8.1,37.1H6.6L0,22.3h1.7l5.7,12.9l5.7-12.9H14.7z"/>
	<path class="st0" d="M16.8,22.3h1.6v14.8h-1.6V22.3z"/>
	<path class="st0" d="M23.2,22.3h1.6v13.5h8.3v1.4h-9.9V22.3z"/>
	<path class="st0" d="M35.7,22.3h1.6v13.5h8.3v1.4h-9.9V22.3z"/>
	<path class="st0" d="M57.5,33.1h-8.3l-1.8,4h-1.6l6.8-14.8h1.5l6.8,14.8h-1.7L57.5,33.1z M56.9,31.9l-3.6-8l-3.6,8H56.9z"/>
</g>
</svg>
